<?xml version="1.0" encoding="utf-8"?>
<!DOCTYPE svg PUBLIC "-//W3C//DTD SVG 1.0//EN" "http://www.w3.org/TR/2001/REC-SVG-20010904/DTD/svg10.dtd">
<svg version="1.0" xmlns="http://www.w3.org/2000/svg" width="1247px" height="1247px" viewBox="0 0 1247 1247" preserveAspectRatio="xMidYMid meet">
 <g fill="#fcfcf9">
  <path d="M0 623.50 l0 -623.50 623.50 0 623.50 0 0 623.50 0 623.50 -623.50 0 -623.50 0 0 -623.50z m483.33 415.87 c16.20 -4.26 28.74 -14.61 35.56 -29.23 5.11 -10.84 5.85 -19.73 2.44 -30.81 -2.68 -9.01 -10.96 -21.68 -16.56 -25.33 -2.31 -1.46 -3.04 -3.04 -3.04 -6.09 l0 -4.14 124.21 0 124.21 0 0 3.53 c0 2.80 -1.70 5.36 -7.31 10.96 -11.81 11.69 -17.41 27.28 -14.74 40.43 4.38 20.82 20.58 36.90 41.77 41.28 12.18 2.44 26.67 -2.68 38.12 -13.52 11.45 -10.72 17.66 -27.40 15.10 -40.55 -1.70 -9.50 -7.55 -20.70 -14.49 -28.01 -4.63 -4.87 -6.09 -7.31 -6.09 -10.23 l0 -3.90 15.59 0 c8.52 0 17.41 -0.61 19.85 -1.22 5.48 -1.58 10.47 -6.09 11.57 -10.35 1.10 -4.51 -2.19 -10.96 -7.06 -14 -4.02 -2.44 -6.58 -2.44 -210.55 -2.44 -180.23 0 -207.27 -0.24 -212.62 -1.83 -7.79 -2.31 -15.22 -9.62 -17.90 -17.29 -2.44 -7.31 -2.44 -18.75 0 -27.28 2.44 -8.16 11.20 -17.29 18.51 -19.24 4.38 -1.22 50.29 -4.87 140.29 -11.08 19.12 -1.34 48.71 -3.53 65.76 -4.87 17.05 -1.34 61.74 -4.63 99.25 -7.31 79.28 -5.60 91.58 -6.70 99.98 -9.01 21.92 -5.85 40.55 -24.60 47.74 -48.22 2.44 -8.16 14.13 -59.79 18.14 -80.37 l2.31 -11.57 9.86 -0.85 c5.36 -0.37 15.71 -2.19 22.77 -3.90 47.98 -11.57 89.63 -41.04 116.42 -82.32 l7.92 -12.18 18.39 0.73 c21.92 0.97 28.98 -0.24 54.07 -9.38 25.57 -9.38 31.17 -11.93 37.14 -17.17 9.99 -8.77 12.42 -17.54 8.40 -29.47 -1.34 -3.78 -1.83 -8.16 -1.46 -12.42 0.49 -6.09 1.10 -7.18 6.09 -11.81 7.55 -7.06 9.99 -12.06 9.99 -20.95 0 -8.16 -2.80 -14.98 -9.74 -23.02 -5.11 -5.97 -5.36 -10.84 -0.85 -19.97 5.85 -12.06 3.53 -22.77 -7.18 -32.76 -9.86 -9.01 -16.93 -10.11 -55.41 -8.40 l-23.50 1.10 0 -8.04 c0 -4.38 0.85 -12.06 1.95 -16.93 4.14 -18.75 2.07 -39.33 -5.11 -53.70 -8.89 -17.41 -27.40 -27.52 -41.04 -22.29 -11.45 4.38 -13.52 9.62 -10.47 27.52 3.04 18.14 3.04 43.96 0 56.63 -3.04 12.30 -4.14 14.98 -16.68 40.19 -13.27 26.79 -15.71 35.68 -14.86 56.02 0.61 12.06 1.34 16.68 4.51 25.94 4.63 14 4.75 18.02 0.12 35.32 -9.01 34.46 -28.86 64.18 -55.41 83.30 -11.81 8.40 -33.98 18.02 -41.65 18.02 l-4.38 0 0.73 -5.11 c0.61 -4.99 3.04 -16.68 17.90 -85 3.65 -16.93 5.85 -30.08 5.48 -32.27 -0.73 -4.51 -5.72 -10.11 -10.84 -12.18 -2.07 -0.85 -11.69 -1.95 -21.31 -2.44 l-17.41 -0.85 0.61 -6.33 c0.37 -3.41 4.26 -24.48 8.65 -46.88 4.38 -22.29 8.04 -42.13 8.04 -43.84 0 -4.14 -2.80 -8.16 -7.55 -10.59 -3.29 -1.70 -32.64 -7.79 -98.03 -20.22 l-21.07 -4.02 0 -4.87 c0 -9.01 12.18 -26.18 18.51 -26.18 1.83 0 13.76 2.19 26.43 4.99 22.04 4.75 23.26 4.87 27.16 3.04 2.19 -1.10 14.13 -11.08 26.55 -22.16 12.42 -11.20 30.81 -27.64 41.04 -36.65 10.23 -9.01 18.88 -17.41 19.24 -18.63 1.10 -3.53 -0.97 -6.58 -21.31 -30.57 -32.27 -38.24 -32.15 -38.12 -39.94 -32.39 -7.67 5.72 -79.28 70.51 -81.35 73.68 -1.83 2.68 -2.44 7.79 -3.29 29.47 l-1.22 26.18 -4.87 5.48 c-2.68 3.04 -6.94 9.99 -9.62 15.47 -4.26 9.13 -5.11 10.11 -8.16 10.11 -1.83 0 -17.05 -2.68 -33.73 -5.97 -40.31 -8.04 -39.94 -8.16 -45.67 19.36 l-3.17 15.47 27.52 0.85 c30.69 0.97 32.76 1.46 39.58 9.38 6.45 7.55 6.82 10.59 6.82 50.90 l0 36.65 -6.58 0 c-3.53 0 -8.28 -0.37 -10.35 -0.73 l-3.78 -0.73 0 -33.37 0 -33.37 -3.53 -3.90 -3.53 -4.02 -79.16 0 c-64.30 0 -79.64 0.37 -82.08 1.70 -5.97 3.17 -6.45 5.72 -6.45 35.07 l0 27.16 -10.59 0 -10.72 0 0 -29.96 c0 -18.75 0.49 -31.91 1.46 -35.56 1.83 -7.18 10.35 -16.07 17.54 -18.27 3.53 -0.97 16.81 -1.46 43.60 -1.46 26.43 0 38.48 -0.37 38.48 -1.34 0 -0.73 -2.80 -14.74 -6.09 -31.05 -14.61 -71.36 -15.22 -73.31 -22.53 -77.21 -3.90 -2.07 0.24 -2.80 -82.20 15.34 -31.78 6.94 -79.16 17.41 -105.34 23.14 -26.06 5.85 -49.32 11.33 -51.51 12.30 -4.14 1.95 -7.55 6.94 -7.55 11.33 0 1.34 5.24 26.18 11.69 55.17 6.45 28.86 11.93 56.14 12.30 60.40 l0.73 7.79 -10.84 -0.73 c-5.97 -0.49 -17.05 -1.22 -24.48 -1.58 -7.55 -0.49 -13.76 -1.10 -13.76 -1.34 0 -0.24 -2.44 -9.86 -5.48 -21.43 -11.45 -43.72 -22.04 -54.80 -58.21 -60.89 -15.47 -2.56 -16.68 -3.04 -21.31 -7.18 -2.56 -2.31 -6.70 -4.87 -8.89 -5.60 -5.24 -1.70 -77.57 -15.83 -85.97 -16.81 -14.98 -1.83 -29.59 13.27 -25.82 26.79 1.83 6.70 9.86 14.86 16.68 17.05 10.84 3.41 89.51 18.02 93.28 17.29 1.95 -0.37 5.48 -2.19 7.79 -3.90 3.90 -3.04 4.75 -3.17 12.30 -2.44 11.45 1.10 26.67 4.87 30.44 7.67 6.33 4.87 5.36 1.58 29.47 92.31 5.24 20.09 12.66 47.74 16.32 61.50 3.78 13.76 11.20 41.40 16.44 61.50 5.36 20.09 12.66 47.49 16.32 60.89 3.65 13.40 8.89 32.88 11.69 43.23 2.80 10.35 9.13 34.10 14.13 52.73 4.99 18.63 9.01 35.56 9.01 37.63 0 3.04 -1.58 5.11 -8.40 11.45 -13.15 12.18 -19.73 24.48 -21.43 40.43 -1.58 14.37 4.87 32.88 15.71 44.94 11.93 13.27 26.91 19.73 47.98 20.82 l13.64 0.61 0 3.41 c0 2.56 -1.58 4.87 -5.97 9.01 -11.33 10.59 -18.02 28.13 -15.71 41.16 3.65 20.22 18.51 36.05 39.09 41.65 8.04 2.19 8.65 2.19 16.56 0z"/>
  <path d="M463.36 1014.53 c-4.38 -1.83 -10.35 -9.01 -11.69 -14.13 -1.70 -6.09 -0.73 -17.29 1.83 -22.29 6.58 -12.66 30.20 -14.98 40.19 -3.90 9.86 10.96 6.58 33.49 -5.72 39.33 -4.51 2.19 -20.09 2.80 -24.60 0.97z"/>
  <path d="M764.76 1014.77 c-4.38 -1.70 -8.77 -5.85 -11.08 -10.35 -3.53 -6.82 -2.92 -22.16 0.85 -27.40 5.72 -7.67 15.34 -11.08 26.67 -9.38 13.76 1.95 20.82 13.76 18.39 30.32 -0.97 6.09 -5.97 12.91 -11.81 15.95 -3.41 1.70 -19.12 2.31 -23.02 0.85z"/>
  <path d="M426.95 813.23 c-6.21 -22.04 -20.22 -76.60 -20.22 -79.16 0 -2.19 0.85 -3.29 2.80 -3.90 2.80 -0.73 49.56 -1.10 49.56 -0.24 0 0.12 2.80 17.29 6.09 37.99 3.41 20.70 6.09 40.43 6.09 43.84 l0 6.21 -11.81 0.73 c-6.58 0.49 -16.20 0.85 -21.31 0.85 l-9.38 0 -1.83 -6.33z"/>
  <path d="M476.39 775.36 c-3.53 -22.16 -6.45 -41.89 -6.33 -43.72 l0 -3.41 19.24 -0.12 c20.95 0 27.40 -1.34 28.01 -5.48 0.73 -5.11 -2.07 -5.60 -26.79 -5.85 l-23.38 -0.12 -3.41 -21.92 c-1.83 -12.06 -5.36 -33.73 -7.67 -48.10 -2.31 -14.37 -4.26 -27.89 -4.26 -29.96 0 -3.78 0 -3.90 7.31 -4.38 8.16 -0.61 11.69 -2.92 10.47 -6.70 -1.10 -3.41 -5.85 -5.24 -14 -5.24 l-6.94 0 -7.55 -48.35 c-4.26 -26.67 -7.67 -49.44 -7.55 -50.54 0 -1.70 1.10 -2.19 4.87 -2.19 10.84 0 82.20 4.99 82.93 5.85 0.37 0.49 1.83 10.11 3.29 21.43 1.46 11.20 3.29 21.19 4.02 22.16 1.95 2.31 4.02 2.19 6.45 -0.61 2.07 -2.31 2.07 -3.17 0.24 -16.56 -1.10 -7.79 -1.95 -16.93 -1.95 -20.22 l0 -5.97 5.24 0 c2.80 0 22.41 1.10 43.47 2.44 21.07 1.34 38.48 2.44 38.73 2.44 0.12 0 0.24 7.92 0.24 17.41 0 15.47 0.24 17.78 2.19 19.48 3.04 2.68 5.97 2.56 7.55 -0.24 0.61 -1.34 1.22 -9.86 1.22 -18.88 l0 -16.56 5.24 0 c2.80 0 21.80 1.10 42.26 2.44 20.46 1.34 37.39 2.44 37.63 2.44 0.24 0 0.12 6.82 -0.37 15.22 l-0.73 15.10 3.04 2.07 c5.24 3.41 6.58 0.73 8.16 -16.32 l1.34 -14.86 5.60 0 c7.79 0 70.51 3.65 75.38 4.38 3.53 0.61 3.90 0.97 3.90 5.11 0 2.44 -2.19 21.55 -4.87 42.26 -2.68 20.82 -4.87 37.87 -4.87 38.12 0 0.12 -4.02 0.24 -9.01 0.24 -6.58 0 -9.62 0.49 -10.96 1.95 -1.10 0.97 -1.95 2.31 -1.95 2.80 0 2.56 4.99 4.87 11.93 5.72 l7.55 0.85 0 5.97 c0 6.09 -9.38 82.32 -10.35 83.78 -0.24 0.49 -11.08 1.10 -23.87 1.46 -21.43 0.61 -23.50 0.97 -25.82 3.29 -2.44 2.44 -2.44 2.56 -0.24 4.99 2.07 2.31 3.65 2.44 25.21 2.44 l22.89 0 0 3.17 c0 4.02 -8.52 70.27 -9.13 70.87 -0.24 0.37 -11.33 1.22 -24.60 2.19 -13.27 0.85 -28.13 1.95 -32.88 2.31 l-8.89 0.85 0 -6.58 c0 -3.53 0.61 -12.42 1.34 -19.61 1.34 -12.54 1.34 -13.40 -0.97 -15.59 -2.31 -2.31 -2.44 -2.31 -5.11 -0.24 -3.29 2.68 -4.51 8.16 -5.60 27.52 -0.61 8.89 -1.46 14.61 -2.31 14.98 -1.83 0.61 -52 4.14 -59.43 4.14 l-5.85 0 0 -12.91 c0 -14 -1.10 -17.54 -5.24 -17.54 -5.11 0 -5.72 2.07 -5.72 17.66 l0 14.74 -31.78 2.19 c-17.41 1.22 -31.91 1.95 -32.27 1.70 -0.24 -0.37 -1.58 -10.59 -3.04 -23.02 -2.56 -23.02 -4.02 -27.89 -8.40 -27.89 -4.38 0 -4.75 3.41 -2.31 23.14 2.68 22.77 2.92 29.23 0.85 29.23 -0.85 0 -11.69 0.85 -24.11 1.83 -12.42 0.97 -26.67 1.83 -31.66 1.83 l-9.13 0 -6.45 -40.55z m168.91 -31.91 c22.16 -5.24 41.65 -21.68 54.19 -45.67 4.51 -8.65 8.04 -19.24 8.04 -24.48 0 -1.83 -0.97 -4.51 -2.31 -6.09 l-2.19 -2.80 -10.84 3.29 c-23.99 7.43 -33 8.65 -62.59 8.65 -30.20 0.12 -41.53 -1.34 -63.20 -7.92 -10.96 -3.41 -11.57 -3.41 -13.88 -1.46 -4.14 3.78 -4.51 5.72 -2.56 13.27 7.67 29.23 34.34 56.38 62.11 63.08 9.50 2.31 23.62 2.31 33.25 0.12z m-133.59 -123.24 c1.10 -1.22 2.31 -3.53 2.80 -5.24 1.95 -6.82 6.94 -13.40 12.42 -16.68 4.99 -2.92 6.94 -3.29 16.20 -3.29 9.13 0 11.20 0.37 15.95 3.17 5.60 3.29 11.33 10.47 12.79 15.95 1.58 6.82 8.28 8.65 9.74 2.68 0.97 -4.02 -4.75 -15.34 -11.20 -21.92 -12.06 -12.42 -28.37 -15.59 -42.50 -8.28 -15.71 8.04 -28.25 27.40 -21.80 33.73 2.44 2.44 3.29 2.44 5.60 -0.12z m237.83 -0.37 c2.07 -2.31 2.07 -3.04 0.73 -7.06 -4.02 -11.33 -12.79 -21.07 -24.48 -27.16 -4.02 -2.07 -7.55 -2.80 -13.40 -2.80 -16.81 -0.12 -31.91 11.69 -38.97 30.44 -0.97 2.31 -0.73 3.41 1.34 5.48 3.17 3.17 4.99 1.83 9.13 -6.94 4.02 -8.40 11.20 -14.61 19 -16.20 13.15 -2.92 22.41 -0.61 30.32 7.18 3.17 3.17 6.09 7.31 6.58 9.50 0.73 3.90 4.87 9.99 6.58 9.99 0.49 0 1.95 -1.10 3.17 -2.44z"/>
  <path d="M792.77 786.44 c0 -7.31 6.70 -65.39 7.67 -66.25 0.24 -0.24 12.91 -0.85 28.01 -1.34 l27.64 -0.73 0 3.65 c0 4.38 -8.04 41.16 -10.47 48.22 -2.44 7.06 -9.01 14.37 -16.07 18.27 -6.21 3.41 -19.12 5.72 -31.54 5.72 l-5.24 0 0 -7.55z"/>
  <path d="M400.16 713.37 c-14.49 -52 -25.09 -93.53 -25.09 -98.76 l0 -4.87 32.51 0.73 c17.78 0.49 32.51 0.97 32.64 1.10 0.85 1.10 15.22 96.33 15.22 100.95 l0 5.60 -20.34 0.73 c-11.08 0.49 -23.14 0.85 -26.67 0.85 l-6.45 0 -1.83 -6.33z"/>
  <path d="M802.51 704.85 c0 -4.02 9.26 -78.30 10.35 -83.42 0.61 -2.80 0.73 -2.80 26.67 -2.80 14.25 0 28.50 0.37 31.66 0.73 l5.60 0.85 0 5.24 c0 4.63 -2.31 16.07 -13.88 68.68 l-2.80 12.79 -13.27 0.73 c-7.31 0.49 -20.22 0.85 -28.74 0.97 l-15.59 0.12 0 -3.90z"/>
  <path d="M825.77 608.03 l-11.45 -0.49 0.73 -6.94 c0.37 -3.78 2.80 -22.77 5.36 -42.13 l4.51 -35.19 23.87 0.97 c13.03 0.49 29.23 1.22 35.92 1.70 l12.18 0.73 -0.12 5.48 c0 3.04 -3.53 21.55 -7.79 41.16 l-7.79 35.56 -21.92 -0.24 c-12.18 -0.12 -27.16 -0.49 -33.49 -0.61z"/>
  <path d="M388.35 599.51 l-18.88 -0.37 -3.90 -14.98 c-2.19 -8.16 -8.04 -30.32 -13.03 -49.20 -4.99 -19 -9.13 -35.80 -9.13 -37.51 0 -2.92 0.24 -3.04 8.28 -3.04 7.18 0 69.90 3.65 70.51 4.14 0.61 0.49 14.98 94.01 14.98 97.67 l0 4.14 -14.86 -0.24 c-8.28 -0.12 -23.50 -0.49 -33.98 -0.61z"/>
  <path d="M798.13 327.46 c-3.65 -1.83 -5.36 -6.21 -5.36 -13.40 0 -8.89 3.53 -12.06 13.40 -12.06 5.60 0 7.79 0.49 9.62 2.31 4.75 4.75 4.75 17.17 0.24 21.31 -2.80 2.56 -14.25 3.65 -17.90 1.83z"/>
 </g>
 <g fill="#fbc74b">
  <path d="M895.19 681.71 c-0.12 -4.51 0 -4.63 4.02 -4.63 7.31 0 29.96 -4.87 42.74 -9.26 6.70 -2.19 13.15 -4.14 14.37 -4.14 1.10 0 2.07 -0.49 2.07 -0.97 0 -0.49 4.51 -3.17 10.11 -5.72 5.48 -2.68 10.72 -5.60 11.57 -6.33 0.85 -0.85 2.44 -1.58 3.41 -1.58 0.97 0 1.70 -0.49 1.70 -1.22 0 -0.61 0.49 -1.22 1.10 -1.22 0.73 0 2.68 -1.34 4.51 -3.04 1.83 -1.70 4.02 -3.04 4.75 -3.04 0.85 0 1.83 -0.85 2.31 -1.83 0.37 -0.97 1.70 -1.83 3.04 -1.83 1.22 0 2.56 -1.10 2.92 -2.44 0.49 -1.83 1.70 -2.44 4.99 -2.44 4.02 0 4.38 -0.24 4.38 -3.41 0 -4.38 4.51 -8.77 9.01 -8.77 3.17 0 3.29 0.12 1.46 2.80 -3.29 4.75 -20.34 19 -32.39 27.03 -25.09 16.81 -59.91 29.35 -87.68 31.54 -4.99 0.37 -6.82 1.10 -7.43 2.80 -0.61 1.58 -0.97 0.85 -0.97 -2.31z"/>
  <path d="M909.68 634.09 c0 -0.85 2.92 -2.56 6.45 -3.90 16.68 -5.85 30.20 -14.25 43.84 -27.28 l8.16 -7.79 0 4.02 c0 4.99 -5.11 10.96 -9.38 10.96 -2.07 0 -2.80 0.73 -2.80 2.56 0 1.46 -0.97 2.80 -2.44 3.17 -1.34 0.37 -2.44 1.10 -2.44 1.70 0 0.61 -1.10 1.10 -2.44 1.10 -1.34 0 -2.44 0.85 -2.44 1.83 0 1.10 -1.10 1.83 -3.04 1.83 -1.70 0 -3.04 0.73 -3.04 1.58 0 2.19 -7.67 5.72 -12.18 5.72 -2.19 0 -3.65 0.61 -3.65 1.58 0 1.83 -6.70 4.51 -11.33 4.51 -1.95 0 -3.29 -0.73 -3.29 -1.58z"/>
  <path d="M1027.80 613.39 c0 -3.78 0.49 -4.87 2.44 -5.36 1.34 -0.37 2.44 -1.70 2.44 -2.92 0 -1.34 0.85 -2.68 1.83 -3.04 0.97 -0.49 1.83 -1.46 1.83 -2.44 0 -0.97 0.85 -1.70 1.83 -1.70 0.97 0 1.83 -1.10 1.83 -2.44 0 -1.34 0.61 -2.44 1.22 -2.44 0.73 0 1.22 -0.85 1.22 -1.83 0 -0.97 0.49 -1.83 1.10 -1.83 0.61 0 1.46 -1.34 1.83 -3.04 0.49 -1.70 1.34 -3.04 1.95 -3.04 0.73 0 1.22 -0.61 1.22 -1.34 0 -0.73 0.85 -2.07 1.83 -3.17 1.46 -1.46 3.41 -1.58 9.13 -0.97 6.09 0.73 7.31 1.22 7.31 3.17 0 2.07 -0.73 2.31 -6.33 1.70 l-6.45 -0.73 -7.79 12.06 c-4.26 6.58 -10.11 14.61 -13.03 18.02 l-5.24 5.97 -0.12 -4.63z"/>
  <path d="M973.49 588.55 c2.44 -3.29 7.06 -10.11 10.23 -15.22 3.17 -5.24 6.09 -9.50 6.58 -9.50 1.70 0 1.10 8.28 -0.73 9.99 -0.85 0.97 -2.07 2.92 -2.44 4.38 -0.49 1.46 -1.46 2.68 -2.07 2.68 -0.61 0 -1.10 0.85 -1.10 1.83 0 0.97 -0.49 1.83 -1.10 1.83 -0.61 0 -1.34 1.10 -1.70 2.44 -0.37 1.34 -1.46 2.44 -2.56 2.44 -1.10 0 -1.95 0.97 -1.95 2.44 0 1.95 -0.85 2.44 -3.78 2.44 l-3.78 0 4.38 -5.72z"/>
  <path d="M1088.69 581 c0 -1.83 0.73 -2.56 2.80 -2.56 1.46 0 6.70 -1.10 11.57 -2.44 4.75 -1.34 9.86 -2.44 11.20 -2.44 1.34 0 2.44 -0.49 2.44 -1.22 0 -0.61 1.34 -1.22 3.04 -1.22 1.70 0 3.04 -0.49 3.04 -1.22 0 -0.61 1.95 -1.22 4.26 -1.22 2.31 0 4.26 0.61 4.26 1.22 0 2.56 -23.99 10.84 -36.90 12.79 -5.24 0.85 -5.72 0.73 -5.72 -1.70z"/>
  <path d="M1136.18 566.87 c0 -2.56 0.73 -3.17 4.87 -3.78 2.68 -0.49 4.87 -1.22 4.87 -1.70 0 -0.61 2.44 -1.95 5.48 -3.29 3.04 -1.22 5.48 -2.56 5.48 -3.04 0 -0.61 1.95 -0.97 4.26 -0.97 4.02 0 4.26 -0.24 4.26 -4.26 0 -2.92 0.61 -4.26 1.83 -4.26 1.22 0 1.83 -1.22 1.83 -3.65 0 -2.80 0.49 -3.65 2.44 -3.65 7.67 0 -4.26 17.78 -15.95 23.75 -2.07 1.10 -7.31 3.41 -11.57 4.99 l-7.79 2.92 0 -3.04z"/>
  <path d="M992 558.11 c4.63 -10.59 6.70 -16.81 9.74 -28.98 l3.17 -12.79 -3.65 -11.33 c-1.95 -6.09 -4.02 -14.37 -4.51 -18.14 -0.73 -6.45 -0.61 -7.06 1.58 -7.06 1.95 0 2.44 1.10 3.17 6.58 0.37 3.65 2.19 10.72 3.90 15.47 2.68 7.43 3.17 10.35 2.56 17.41 -0.61 9.26 -6.58 32.39 -8.28 32.39 -0.61 0 -1.10 1.10 -1.10 2.44 0 4.51 -2.68 8.52 -5.72 8.52 -2.80 0 -2.80 0 -0.85 -4.51z"/>
  <path d="M1167.48 522.06 c-2.31 -7.31 -2.68 -13.03 -0.85 -13.03 0.73 0 1.22 -1.70 1.22 -3.65 0 -2.19 0.73 -4.02 1.83 -4.51 4.87 -1.83 12.79 -13.15 12.79 -18.02 0 -1.10 1.10 -1.83 2.56 -1.83 2.31 0 2.56 0.49 1.70 4.63 -1.10 6.21 -5.72 13.88 -10.84 17.78 -5.24 4.02 -6.45 9.01 -3.90 16.44 2.56 6.82 2.44 8.65 -0.24 8.65 -1.58 0 -2.80 -1.83 -4.26 -6.45z"/>
  <path d="M879.23 487.84 c0 -1.70 3.53 -21.55 7.92 -44.21 4.38 -22.65 7.79 -42.26 7.43 -43.60 -0.37 -1.34 -1.70 -3.65 -3.17 -5.11 -1.34 -1.46 -2.44 -3.29 -2.44 -4.02 0 -0.61 -1.46 -1.22 -3.29 -1.22 -1.83 0 -24.11 -4.14 -49.56 -9.13 -25.57 -4.99 -50.05 -9.74 -54.56 -10.47 -6.70 -1.22 -8.28 -1.95 -8.28 -3.78 0 -1.22 0.61 -2.19 1.46 -2.19 1.34 0 58.94 11.08 98.03 18.88 22.41 4.38 26.55 7.55 26.30 19.36 -0.12 4.99 -5.72 35.80 -15.10 82.08 -1.34 6.58 -4.75 9.13 -4.75 3.41z"/>
  <path d="M697.18 487.72 c-12.06 -0.97 -46.88 -3.04 -77.33 -4.87 -66.49 -3.78 -73.31 -4.38 -74.04 -6.33 -0.24 -0.85 0.49 -1.58 1.83 -1.58 2.07 0 2.19 -1.58 2.19 -27.28 0 -29.23 0.49 -31.78 6.45 -34.95 2.44 -1.34 18.39 -1.70 85.73 -1.70 l82.81 0 3.53 4.02 3.53 3.90 0 26.79 c0 25.94 -0.12 26.79 -2.44 26.79 -2.31 0 -2.44 -0.85 -2.44 -24.84 0 -24.60 0 -24.96 -2.92 -28.37 l-2.92 -3.41 -79.89 0 -79.89 0 -3.29 3.41 -3.41 3.29 -0.37 23.75 -0.37 23.75 10.23 0 10.23 0 1.34 -5.85 c2.92 -12.66 6.21 -19.24 14 -27.40 4.14 -4.38 9.13 -8.52 10.96 -9.26 2.19 -0.85 15.95 -1.34 36.29 -1.34 21.07 0 32.76 -0.49 32.76 -1.22 0 -2.07 9.50 -1.34 12.30 0.97 1.46 1.10 5.72 5.24 9.62 9.01 8.77 8.65 14 20.22 15.22 33.98 l0.85 9.38 4.51 0.73 c2.44 0.37 6.70 0.73 9.62 0.73 4.26 0 5.11 -0.37 5.11 -2.44 0 -1.58 0.85 -2.44 2.44 -2.44 2.07 0 2.44 0.85 2.44 5.48 0 4.02 0.49 5.48 1.83 5.48 0.97 0 1.83 0.85 1.83 1.83 0 2.19 -6.58 2.19 -38.36 0z"/>
  <path d="M995.65 472.98 c-1.10 -4.38 0.24 -10.23 2.44 -10.23 1.22 0 1.70 1.70 1.70 6.70 0 4.87 -0.49 6.70 -1.70 6.70 -0.97 0 -2.07 -1.46 -2.44 -3.17z"/>
  <path d="M1181.73 468.84 c-0.49 -3.29 -1.34 -6.09 -2.07 -6.09 -1.83 0 -4.38 -4.02 -4.51 -6.94 0 -1.95 -0.73 -2.80 -2.44 -2.80 -1.22 0 -2.92 -1.10 -3.65 -2.31 -1.46 -2.80 -1.58 -9.50 -0.24 -10.11 1.70 -0.61 6.33 -12.91 6.33 -16.56 0 -7.67 -1.58 -14.86 -3.17 -14.86 -1.10 0 -1.70 -1.46 -1.70 -4.38 0 -3.90 0.24 -4.26 1.95 -2.80 4.38 3.65 7.06 11.20 7.06 20.58 0.12 7.67 -0.49 10.23 -3.41 16.20 l-3.41 7.18 3.78 4.38 c4.99 5.85 9.50 14.49 10.47 20.09 0.73 4.02 0.61 4.51 -1.70 4.51 -2.07 0 -2.56 -0.97 -3.29 -6.09z"/>
  <path d="M996.75 453.38 c1.10 -8.16 7.06 -25.09 8.89 -25.70 2.19 -0.73 1.83 5.60 -0.85 13.52 -1.34 3.78 -2.80 9.38 -3.17 12.42 -0.73 4.38 -1.34 5.48 -3.29 5.48 -2.19 0 -2.44 -0.49 -1.58 -5.72z"/>
  <path d="M743.94 416.84 c-2.07 -7.43 -11.08 -16.93 -17.05 -17.90 -2.31 -0.37 -10.72 -0.97 -18.75 -1.22 -8.04 -0.37 -14.74 -0.61 -14.86 -0.61 -0.24 -0.12 -0.37 -0.97 -0.37 -2.07 0 -1.70 2.31 -1.83 19.12 -1.46 13.88 0.24 19.12 0.73 19.61 1.95 0.24 0.73 1.46 1.46 2.80 1.46 1.22 0 2.31 0.85 2.31 1.83 0 0.97 1.10 1.83 2.44 1.83 1.58 0 2.44 0.85 2.44 2.44 0 1.34 0.85 2.44 1.83 2.44 0.97 0 1.83 1.10 1.83 2.31 0 1.34 0.61 2.56 1.34 2.80 0.73 0.24 1.58 3.04 1.95 6.21 0.61 4.51 0.37 5.72 -1.10 5.72 -1.22 0 -2.44 -2.19 -3.53 -5.72z"/>
  <path d="M185.71 410.51 c-22.77 -4.51 -43.47 -8.89 -45.91 -9.74 -8.89 -2.92 -16.81 -14.74 -16.81 -25.21 0 -11.57 9.38 -23.38 20.58 -25.57 3.17 -0.73 3.78 -0.49 3.78 1.58 0 1.70 -1.34 2.92 -4.87 4.02 -2.68 0.85 -4.87 2.07 -4.87 2.68 0 0.49 -1.10 0.97 -2.44 0.97 -1.58 0 -2.44 0.85 -2.44 2.44 0 1.34 -0.49 2.44 -1.22 2.44 -0.61 0 -1.22 0.85 -1.22 1.83 0 0.97 -0.49 1.83 -1.22 1.83 -1.83 0 -1.34 12.42 0.61 15.83 0.97 1.70 1.70 4.51 1.83 6.45 0 2.56 0.61 3.29 2.68 3.29 1.46 0 4.87 1.10 7.55 2.31 4.02 1.95 65.64 14.86 85.73 17.90 3.90 0.61 5.11 1.34 5.11 3.04 0 1.58 -0.85 2.31 -2.68 2.19 -1.58 -0.12 -21.43 -3.78 -44.21 -8.28z"/>
  <path d="M237.47 416.72 c0 -1.58 1.10 -2.68 3.29 -3.29 1.83 -0.37 3.78 -1.34 4.14 -2.07 0.37 -0.61 2.56 -0.97 4.87 -0.73 l4.14 0.37 -4.38 3.29 c-2.44 1.83 -6.09 3.78 -8.16 4.14 -3.41 0.73 -3.90 0.49 -3.90 -1.70z"/>
  <path d="M1010.75 415.75 c0 -1.58 5.36 -10.23 6.33 -10.23 1.10 0 1.34 6.21 0.24 9.01 -0.73 1.83 -6.58 2.92 -6.58 1.22z"/>
  <path d="M1020.01 397.36 c4.87 -11.45 6.45 -16.20 8.40 -24.96 1.34 -6.33 2.68 -9.50 3.78 -9.50 1.10 0 1.70 1.34 1.70 3.41 0 4.75 -3.90 20.95 -5.11 20.95 -0.49 0 -0.97 1.10 -0.97 2.44 0 1.34 -0.85 4.63 -1.95 7.31 -1.58 3.78 -2.56 4.87 -4.87 4.87 -2.92 0 -2.92 0 -0.97 -4.51z"/>
  <path d="M1156.28 396.87 c-2.68 -1.22 -5.85 -2.31 -6.94 -2.31 -1.34 0 -2.19 -0.97 -2.19 -2.44 0 -1.58 0.85 -2.44 2.44 -2.44 3.90 0 15.34 4.75 17.66 7.31 2.19 2.44 2.07 2.44 -1.95 2.31 -2.31 0 -6.33 -1.10 -9.01 -2.44z"/>
  <path d="M680.49 397.24 c-1.22 -0.24 -2.19 -1.22 -2.19 -2.19 0 -1.22 1.58 -1.70 5.48 -1.70 4.02 0 5.48 0.49 5.48 1.83 0 0.97 -0.73 1.83 -1.46 1.95 -0.85 0 -2.44 0.24 -3.41 0.37 -0.97 0.12 -2.80 0.12 -3.90 -0.24z"/>
  <path d="M671.72 388.35 c6.33 -33.25 7.31 -35.80 15.95 -38.85 4.75 -1.58 6.58 -1.46 29.23 2.92 35.19 6.58 40.55 7.92 40.55 9.99 0 2.56 -3.17 2.19 -33 -3.78 -14.98 -3.04 -28.86 -5.36 -30.93 -4.99 -10.59 1.70 -11.57 2.19 -11.57 4.87 0 1.46 -1.10 7.55 -2.31 13.52 -1.34 6.09 -3.04 14.13 -3.78 18.02 -1.10 5.36 -1.83 6.94 -3.65 6.94 -2.07 0 -2.07 -0.49 -0.49 -8.65z"/>
  <path d="M1088.69 393.95 c0 -0.97 -0.85 -1.83 -1.83 -1.83 -2.56 0 -2.31 -6.33 0.61 -21.68 2.80 -14.74 3.17 -29.84 0.61 -39.21 -2.07 -8.04 -7.92 -20.95 -9.99 -22.29 -0.85 -0.49 -1.58 -2.56 -1.58 -4.51 0 -2.92 -0.49 -3.65 -2.68 -3.65 -1.58 0 -6.09 -1.70 -9.99 -3.65 -3.90 -2.07 -8.16 -3.65 -9.38 -3.65 -1.58 0 -2.31 -0.85 -2.31 -2.56 0 -2.44 0.49 -2.56 4.99 -1.83 15.95 2.56 28.98 16.56 34.71 37.39 2.80 10.11 2.80 34.46 0 47.13 -1.10 4.87 -1.95 10.84 -1.95 13.15 l0 4.14 6.09 0 c5.24 0 6.09 0.37 6.09 2.44 0 2.19 -0.85 2.44 -6.70 2.44 -5.11 0 -6.70 -0.37 -6.70 -1.83z"/>
  <path d="M1104.52 392.85 c0 -1.83 3.65 -3.17 8.89 -3.17 2.44 0 3.29 0.61 3.29 2.44 0 2.07 -0.85 2.44 -6.09 2.44 -4.38 0 -6.09 -0.49 -6.09 -1.70z"/>
  <path d="M1126.44 391.64 c0 -1.95 3.65 -3.17 9.74 -3.17 6.09 0 9.74 1.22 9.74 3.17 0 1.34 -2.31 1.70 -9.74 1.70 -7.43 0 -9.74 -0.37 -9.74 -1.70z"/>
  <path d="M244.77 372.88 c0 -1.34 -14.98 -4.63 -56.87 -12.66 -30.44 -5.72 -34.46 -6.70 -34.46 -8.77 0 -2.80 -0.61 -2.92 50.66 7.18 37.87 7.43 44.57 9.26 47.86 13.27 1.46 1.70 1.10 1.95 -2.80 1.95 -2.44 0 -4.38 -0.49 -4.38 -0.97z"/>
  <path d="M1030.24 351.94 c0 -7.67 0.24 -8.52 2.44 -8.52 2.19 0 2.44 0.85 2.44 8.52 0 7.67 -0.24 8.52 -2.44 8.52 -2.19 0 -2.44 -0.85 -2.44 -8.52z"/>
  <path d="M1029.75 336.47 c-2.56 -12.18 -4.38 -28.25 -3.78 -32.27 1.10 -5.97 4.75 -10.47 10.84 -13.27 6.58 -2.92 9.26 -2.92 9.26 0.12 0 1.95 -0.85 2.44 -4.26 2.44 -2.92 0 -4.26 0.61 -4.26 1.83 0 0.97 -0.97 1.83 -2.19 1.83 -1.46 0 -2.68 1.70 -3.78 5.72 -1.58 4.99 -1.46 7.31 0.24 18.51 1.22 7.06 2.07 14.13 2.07 15.71 0 3.90 -3.29 3.41 -4.14 -0.61z"/>
 </g>
 <g fill="#f5b731">
  <path d="M904.81 678.54 c0 -1.83 1.10 -2.56 5.60 -3.17 8.40 -1.10 10.23 -0.97 10.23 0.97 0 1.70 -1.34 2.19 -11.20 3.90 -4.02 0.61 -4.63 0.49 -4.63 -1.70z"/>
  <path d="M924.29 674.89 c0 -2.44 3.90 -3.90 10.35 -3.90 1.58 0 3.04 -0.61 3.29 -1.34 0.24 -0.73 3.04 -1.58 6.33 -1.95 4.75 -0.61 5.85 -0.37 5.36 0.97 -0.49 1.70 -13.15 6.45 -21.19 7.92 -3.53 0.61 -4.14 0.49 -4.14 -1.70z"/>
  <path d="M951.08 666.97 c0 -3.04 5.36 -5.72 11.33 -5.72 6.45 0 3.41 3.29 -6.58 6.70 -4.63 1.70 -4.75 1.70 -4.75 -0.97z"/>
  <path d="M976.65 654.55 c0 -2.44 0.61 -3.04 3.04 -3.04 1.95 0 3.04 -0.73 3.04 -1.83 0 -0.97 0.85 -1.83 1.83 -1.83 0.97 0 1.83 -0.49 1.83 -1.22 0 -0.61 1.95 -1.22 4.38 -1.22 3.78 0 4.26 0.24 2.92 1.83 -1.58 1.83 -14.86 10.35 -16.32 10.35 -0.37 0 -0.73 -1.34 -0.73 -3.04z"/>
  <path d="M999.79 639.45 c0 -3.17 0.49 -3.78 2.92 -3.78 2.19 0 3.04 -0.73 3.41 -2.68 0.24 -2.31 1.22 -2.80 5.24 -3.17 l4.87 -0.24 -4.87 4.38 c-2.68 2.44 -6.33 5.48 -8.16 6.82 l-3.41 2.31 0 -3.65z"/>
  <path d="M906.02 632.63 c0 -2.31 0.61 -4.26 1.34 -4.26 0.73 0 1.10 1.10 0.73 2.44 -0.49 2.07 -0.24 2.31 2.56 1.58 1.83 -0.37 6.82 -2.31 11.20 -4.14 7.79 -3.29 7.92 -3.29 8.28 -0.85 0.49 2.92 -1.58 4.63 -5.48 4.63 -1.58 0 -2.80 0.61 -2.80 1.22 0 0.73 -1.58 1.22 -3.65 1.22 -1.95 0 -3.65 0.61 -3.65 1.22 0 0.73 -1.95 1.22 -4.26 1.22 -4.02 0 -4.26 -0.24 -4.26 -4.26z"/>
  <path d="M934.03 623.87 c0.12 -0.61 3.65 -3.29 7.92 -6.09 l7.92 -5.11 0 3.53 c0 3.29 -0.37 3.65 -3.65 3.65 -2.80 0 -3.65 0.49 -3.65 2.44 0 1.95 -0.85 2.44 -4.26 2.44 -2.31 0 -4.26 -0.37 -4.26 -0.85z"/>
  <path d="M1024.15 617.17 c0 -4.63 1.83 -7.06 5.11 -7.06 1.58 0 2.19 -0.97 2.19 -3.04 0 -1.95 0.73 -3.04 1.83 -3.04 0.97 0 1.83 -1.10 1.83 -2.44 0 -1.34 0.85 -2.44 1.83 -2.44 0.97 0 1.83 -1.10 1.83 -2.44 0 -1.34 0.61 -2.44 1.22 -2.44 0.73 0 1.22 -0.85 1.22 -1.83 0 -0.97 0.61 -1.83 1.22 -1.83 0.73 0 1.22 -0.85 1.22 -1.83 0 -0.97 0.85 -1.83 1.83 -1.83 1.10 0 1.83 -1.10 1.83 -3.04 0 -2.19 0.61 -3.04 2.44 -3.04 1.34 0 2.44 -0.85 2.44 -1.83 0 -2.07 1.83 -2.19 10.23 -1.10 4.38 0.61 5.60 1.34 5.60 3.04 0 2.56 -0.73 2.68 -8.28 1.22 l-5.36 -1.10 -5.48 8.77 c-6.09 9.38 -19.61 27.28 -22.77 29.84 -1.70 1.46 -1.95 1.22 -1.95 -2.56z"/>
  <path d="M952.91 610.10 c0.37 -0.61 2.31 -2.31 4.26 -3.65 l3.65 -2.56 0 3.65 c0 3.53 -0.37 3.78 -4.38 3.78 -2.44 0 -4.02 -0.49 -3.53 -1.22z"/>
  <path d="M964.35 599.51 c1.34 -1.83 4.99 -6.09 8.04 -9.50 l5.48 -6.09 0 4.63 c0 4.14 -0.24 4.51 -3.53 4.51 -3.29 0 -3.65 0.37 -4.02 4.63 -0.37 4.14 -0.73 4.51 -4.51 4.87 l-4.02 0.37 2.56 -3.41z"/>
  <path d="M1087.47 581.12 c0 -1.83 1.10 -2.56 5.60 -3.17 8.40 -1.10 10.23 -0.97 10.23 0.97 0 1.70 -1.34 2.19 -11.20 3.90 -4.02 0.61 -4.63 0.49 -4.63 -1.70z"/>
  <path d="M982.74 576.49 c0 -1.46 4.14 -7.79 5.11 -7.79 0.49 0 0.97 1.95 0.97 4.26 0 3.78 -0.37 4.26 -3.04 4.26 -1.70 0 -3.04 -0.37 -3.04 -0.73z"/>
  <path d="M1113.04 574.79 c0 -1.95 0.85 -2.44 4.26 -2.44 4.75 0 5.60 1.70 1.95 3.65 -3.78 1.95 -6.21 1.46 -6.21 -1.22z"/>
  <path d="M1128.88 569.43 c0 -3.04 2.56 -4.38 8.89 -4.38 5.11 0 3.41 2.68 -3.17 5.11 l-5.72 2.19 0 -2.92z"/>
  <path d="M1154.45 558.35 c0 -1.83 0.73 -3.04 1.70 -3.04 0.97 0 1.95 -0.85 2.44 -1.83 0.37 -0.97 1.83 -1.83 3.17 -1.83 1.58 0 2.44 -0.85 2.44 -2.44 0 -1.34 0.49 -2.44 0.97 -2.44 0.61 0 1.83 -2.19 2.68 -4.87 1.10 -3.53 2.31 -4.87 4.02 -4.87 5.72 0 -1.46 14.25 -10.35 20.70 -6.09 4.38 -7.06 4.51 -7.06 0.61z"/>
  <path d="M995.29 551.41 c2.31 -5.60 4.51 -5.85 4.51 -0.49 0 3.90 -0.37 4.38 -3.04 4.38 -2.92 0 -3.04 -0.12 -1.46 -3.90z"/>
  <path d="M999.79 539.35 c0 -3.90 2.92 -12.06 4.38 -12.06 1.83 0 2.19 3.41 0.97 9.62 -0.61 2.56 -1.46 3.78 -3.04 3.78 -1.34 0 -2.31 -0.61 -2.31 -1.34z"/>
  <path d="M1168.33 524.86 c-0.49 -3.29 -1.22 -6.09 -1.83 -6.09 -2.44 0 0.37 -16.68 3.04 -18.51 0.73 -0.49 2.80 -0.97 4.75 -0.97 2.80 0 3.29 -0.49 3.29 -3.65 0 -2.31 0.61 -3.65 1.70 -3.65 1.10 0 1.95 -2.19 2.44 -6.09 0.73 -5.11 1.22 -6.09 3.29 -6.09 2.31 0 2.44 0.49 1.70 4.51 -1.22 6.70 -4.75 12.91 -9.99 17.41 -6.58 5.85 -7.67 9.99 -4.99 18.14 2.80 8.65 2.80 11.08 -0.24 11.08 -1.95 0 -2.56 -1.10 -3.17 -6.09z"/>
  <path d="M1003.45 524.62 c0 -3.65 1.58 -7.06 3.17 -7.06 1.10 0 1.70 1.46 1.70 4.26 0 3.41 -0.49 4.26 -2.44 4.26 -1.34 0 -2.44 -0.73 -2.44 -1.46z"/>
  <path d="M1004.18 511.59 c-0.37 -0.49 -1.22 -2.44 -1.83 -4.26 -1.22 -2.92 -0.97 -3.17 1.70 -3.17 2.68 0 3.04 0.49 3.04 4.26 0 4.02 -1.46 5.60 -2.92 3.17z"/>
  <path d="M998.70 495.39 c-2.92 -15.22 -2.92 -16.81 -0.49 -16.81 1.83 0 2.56 1.58 3.78 9.50 1.83 12.06 1.83 13.64 -0.24 13.64 -1.22 0 -2.19 -2.19 -3.04 -6.33z"/>
  <path d="M878.01 493.20 c0 -1.34 0.61 -6.21 1.46 -10.96 1.22 -7.06 1.83 -8.52 3.78 -8.52 2.07 0 2.19 0.61 1.58 4.63 -2.44 13.88 -3.41 17.29 -5.11 17.29 -0.97 0 -1.70 -1.10 -1.70 -2.44z"/>
  <path d="M741.62 488.33 c0 -0.61 0.85 -1.22 1.83 -1.22 1.46 0 1.83 -1.58 1.83 -6.70 0 -5.85 0.24 -6.70 2.44 -6.70 2.19 0 2.44 0.85 2.44 7.92 l0 7.92 -4.26 0 c-2.31 0 -4.26 -0.49 -4.26 -1.22z"/>
  <path d="M703.87 486.26 c-1.70 -0.37 -3.53 -1.10 -4.14 -1.58 -1.10 -1.10 10.96 -0.49 26.67 1.22 7.92 0.85 7.55 0.85 -5.48 0.85 -7.67 0 -15.34 -0.24 -17.05 -0.49z"/>
  <path d="M681.10 482.60 c1.10 -0.24 3.04 -0.24 4.26 0 1.10 0.37 0.12 0.61 -2.19 0.61 -2.31 0 -3.29 -0.24 -2.07 -0.61z"/>
  <path d="M706.92 482.36 c-3.65 -0.73 -3.65 -0.85 -3.90 -9.62 -0.61 -15.47 -11.45 -35.44 -22.41 -41.16 -5.11 -2.56 -71.97 -2.44 -77.33 0.24 -1.95 0.97 -6.70 5.24 -10.59 9.38 -7.18 7.79 -10.84 15.10 -13.40 27.40 -1.34 6.33 -1.46 6.45 -4.87 5.85 -1.95 -0.37 -8.16 -0.73 -13.88 -0.73 l-10.23 0 0.37 -27.40 0.37 -27.40 3.41 -3.29 3.29 -3.41 81.47 -0.37 c50.78 -0.12 82.57 0.12 84.51 0.85 6.45 2.56 6.94 4.63 7.43 35.56 0.24 15.71 0.12 29.96 -0.24 31.91 -0.49 3.29 -0.61 3.29 -10.47 3.17 -5.36 -0.12 -11.45 -0.49 -13.52 -0.97z"/>
  <path d="M558.71 477.73 c-7.79 -0.37 -11.93 -0.97 -11.93 -1.83 0 -0.97 3.29 -1.10 11.20 -0.49 6.09 0.37 14 0.73 17.66 0.73 3.53 0 6.45 0.61 6.45 1.22 0 0.73 -2.56 1.10 -5.72 0.97 -3.29 -0.12 -11.20 -0.49 -17.66 -0.61z"/>
  <path d="M1181.48 471.64 c-0.85 -3.29 -1.95 -7.67 -2.31 -9.74 -0.49 -2.92 -1.34 -4.02 -2.92 -4.02 -1.70 0 -2.31 -0.85 -2.31 -3.65 0 -3.04 -0.49 -3.65 -3.04 -3.65 -2.56 0 -3.04 -0.61 -3.04 -3.29 0 -6.33 1.34 -8.89 4.38 -8.89 3.41 0 3.65 0.85 1.10 4.51 -1.70 2.44 -1.46 2.92 3.04 8.52 5.97 7.06 9.38 13.88 10.47 20.82 0.73 4.51 0.49 5.11 -1.46 5.11 -1.83 0 -2.80 -1.46 -3.90 -5.72z"/>
  <path d="M884.10 461.90 c0 -1.22 1.95 -13.03 4.51 -26.18 3.90 -20.82 4.75 -24.11 6.70 -24.11 1.22 0 2.19 0.37 2.19 0.97 0 0.49 -2.19 12.06 -4.87 25.82 -2.68 13.64 -4.87 25.09 -4.87 25.21 0 0.24 -0.85 0.37 -1.83 0.37 -0.97 0 -1.83 -0.97 -1.83 -2.07z"/>
  <path d="M996.75 455.81 c2.31 -12.91 3.29 -16.20 4.99 -16.20 2.07 0 2.19 2.80 0.24 12.91 -1.10 6.45 -1.83 7.79 -3.78 7.79 -2.07 0 -2.19 -0.61 -1.46 -4.51z"/>
  <path d="M1003.45 430.36 c3.17 -8.40 6.09 -10.35 6.09 -4.26 0 5.36 -1.22 7.43 -4.38 7.43 -2.56 0 -2.80 -0.37 -1.70 -3.17z"/>
  <path d="M1175.15 424.76 c0 -5.48 -3.41 -16.81 -5.11 -16.81 -0.49 0 -0.97 -1.58 -0.97 -3.65 0 -3.29 -0.37 -3.65 -3.65 -3.65 -3.04 0 -3.65 -0.49 -3.65 -3.04 0 -1.70 0.49 -3.04 1.22 -3.04 1.83 0 9.50 7.18 12.18 11.45 4.75 7.79 5.97 23.87 1.70 23.87 -1.22 0 -1.70 -1.46 -1.70 -5.11z"/>
  <path d="M744.42 417.09 c-1.34 -4.02 -1.22 -4.26 1.58 -4.26 2.56 0 2.92 0.61 2.92 4.26 0 2.68 -0.61 4.26 -1.58 4.26 -0.97 0 -2.19 -1.95 -2.92 -4.26z"/>
  <path d="M224.68 417.57 c-2.68 -0.49 -20.70 -4.02 -40.19 -7.79 -43.11 -8.40 -40.80 -7.79 -40.80 -9.86 0 -2.56 3.04 -2.19 39.09 4.87 18.39 3.53 37.39 7.18 42.26 8.04 7.18 1.34 8.77 2.07 8.77 3.90 0 2.44 -1.34 2.56 -9.13 0.85z"/>
  <path d="M236.25 416.60 c0 -2.44 3.04 -3.78 8.89 -3.78 4.63 0 4.14 2.19 -0.97 4.38 -5.60 2.31 -7.92 2.19 -7.92 -0.61z"/>
  <path d="M1009.53 418.18 c0 -1.46 4.14 -7.79 5.11 -7.79 0.49 0 0.97 1.95 0.97 4.26 0 3.78 -0.37 4.26 -3.04 4.26 -1.70 0 -3.04 -0.37 -3.04 -0.73z"/>
  <path d="M738.09 406.13 c-4.51 -4.87 -8.52 -7.18 -14.37 -8.52 -4.63 -0.97 -5.48 -4.26 -1.10 -4.26 6.33 0 10.47 1.46 10.47 3.78 0 1.70 0.85 2.31 3.17 2.31 4.26 0 6.82 2.92 6.33 7.31 l-0.37 3.78 -4.14 -4.38z"/>
  <path d="M1015.62 407.35 c0 -1.70 3.90 -7.92 4.87 -7.92 0.73 0 1.22 1.95 1.22 4.26 0 3.78 -0.37 4.26 -3.04 4.26 -1.70 0 -3.04 -0.24 -3.04 -0.61z"/>
  <path d="M130.06 393.71 c-7.06 -8.16 -8.40 -21.92 -3.04 -31.17 1.83 -2.92 4.63 -6.33 6.33 -7.43 3.04 -1.95 3.04 -1.95 3.04 1.70 0 2.31 -0.85 4.14 -2.44 5.11 -1.34 0.85 -2.44 2.19 -2.44 3.04 0 0.85 -0.49 1.58 -1.10 1.58 -1.70 0 -2.68 7.92 -1.83 14.61 0.49 3.90 1.34 6.09 2.44 6.09 1.10 0 1.70 1.46 1.70 4.26 0 4.87 -0.12 4.99 -2.68 2.19z"/>
  <path d="M1086.62 393.95 c-2.19 -2.44 -1.95 -8.89 0.49 -22.77 1.70 -9.74 2.56 -11.93 4.26 -11.93 2.68 0 2.68 -0.37 -0.24 14.86 -2.92 15.10 -2.92 13.76 -0.49 16.20 1.58 1.58 3.41 1.83 8.52 1.10 6.09 -0.73 6.58 -0.61 6.58 1.83 0 2.31 -0.61 2.56 -8.77 2.56 -6.09 -0.12 -9.38 -0.61 -10.35 -1.83z"/>
  <path d="M670.99 393.46 c0 -0.49 1.34 -7.67 3.04 -15.95 1.70 -8.28 3.04 -15.10 3.04 -15.34 0 -0.24 0.85 -0.49 1.83 -0.49 2.44 0 2.31 2.80 -0.85 19.12 -2.19 11.45 -3.04 13.76 -4.87 13.76 -1.22 0 -2.19 -0.49 -2.19 -1.10z"/>
  <path d="M890.19 393.46 c0 -0.61 -1.34 -1.46 -3.04 -1.83 -3.41 -0.85 -4.38 -5.60 -1.10 -5.60 2.68 0 8.28 3.53 9.99 6.21 1.34 2.07 1.10 2.31 -2.19 2.31 -1.95 0 -3.65 -0.49 -3.65 -1.10z"/>
  <path d="M1109.39 392.85 c0 -1.70 3.53 -3.17 8.28 -3.17 1.83 0 2.68 0.73 2.68 2.44 0 2.07 -0.85 2.44 -5.48 2.44 -3.90 0 -5.48 -0.49 -5.48 -1.70z"/>
  <path d="M1145.92 392.12 c0 -2.56 1.22 -2.92 5.85 -1.70 4.38 1.22 3.29 4.14 -1.58 4.14 -3.41 0 -4.26 -0.49 -4.26 -2.44z"/>
  <path d="M1024.51 387.01 c0.97 -2.19 2.68 -8.04 3.78 -12.79 1.46 -5.72 2.80 -8.89 3.90 -8.89 0.97 0 1.70 1.22 1.70 2.92 0 4.51 -2.68 15.34 -3.90 15.34 -0.49 0 -0.97 1.70 -0.97 3.65 0 3.04 -0.49 3.65 -3.04 3.65 -3.04 0 -3.04 -0.12 -1.46 -3.90z"/>
  <path d="M860.11 385.67 c-10.35 -2.07 -12.54 -2.92 -12.54 -4.75 0 -2.80 -0.73 -2.80 17.05 0.85 8.28 1.70 15.10 3.04 15.34 3.04 0.24 0 0.49 0.85 0.49 1.83 0 2.44 -4.63 2.19 -20.34 -0.97z"/>
  <path d="M252.08 378.12 c0 -2.44 -0.61 -3.04 -3.04 -3.04 -1.70 0 -3.04 -0.49 -3.04 -1.22 0 -0.61 -0.85 -1.22 -1.83 -1.22 -1.10 0 -1.83 -1.10 -1.83 -2.92 0 -4.02 3.29 -3.04 10.23 3.04 2.92 2.68 5.97 4.75 6.70 4.75 0.73 0 1.34 0.85 1.34 1.83 0 1.22 -1.34 1.83 -4.26 1.83 -3.78 0 -4.26 -0.37 -4.26 -3.04z"/>
  <path d="M801.05 374.10 c-24.84 -4.87 -28.98 -5.97 -28.98 -7.79 0 -1.22 0.37 -2.19 0.97 -2.19 0.49 0 14.98 2.80 32.27 6.09 17.29 3.41 31.66 6.09 32.03 6.09 0.24 0 0.49 0.85 0.49 1.83 0 2.80 -4.63 2.19 -36.78 -4.02z"/>
  <path d="M207.39 364.36 c-19.12 -3.78 -22.29 -4.63 -22.29 -6.58 0 -1.22 0.37 -2.19 0.97 -2.19 0.49 0 12.06 2.19 25.57 4.87 13.64 2.68 25.09 4.87 25.33 4.87 0.24 0 0.49 0.85 0.49 1.83 0 2.68 -4.63 2.19 -30.08 -2.80z"/>
  <path d="M723.72 358.88 c-21.07 -4.26 -24.72 -5.36 -24.72 -7.18 0 -1.22 0.49 -2.19 0.97 -2.19 0.61 0 13.27 2.44 28.25 5.48 14.98 3.04 27.40 5.48 27.64 5.48 0.24 0 0.37 0.85 0.37 1.83 0 2.68 -4.75 2.19 -32.51 -3.41z"/>
  <path d="M1030.24 361.44 c0 -4.75 1.46 -8.28 3.17 -8.28 1.22 0 1.70 1.58 1.70 5.48 0 4.63 -0.37 5.48 -2.44 5.48 -1.70 0 -2.44 -0.85 -2.44 -2.68z"/>
  <path d="M678.30 358.03 c0 -1.70 5.60 -7.31 7.31 -7.31 1.83 0 1.46 4.75 -0.49 6.82 -2.07 1.95 -6.82 2.31 -6.82 0.49z"/>
  <path d="M162.33 355.83 c-8.16 -1.58 -10.11 -2.44 -10.11 -4.14 0 -2.68 -0.37 -2.68 14.86 0.24 6.94 1.34 12.66 2.44 12.91 2.44 0.12 0 0.24 0.85 0.24 1.83 0 2.31 -4.38 2.19 -17.90 -0.37z"/>
  <path d="M140.04 352.67 c0 -1.58 3.41 -3.17 7.06 -3.17 0.73 0 1.46 1.10 1.46 2.44 0 1.95 -0.85 2.44 -4.26 2.44 -2.80 0 -4.26 -0.61 -4.26 -1.70z"/>
  <path d="M1089.91 348.89 c0 -4.02 0.49 -5.48 1.83 -5.48 1.70 0 2.19 1.10 2.19 5.48 0 4.38 -0.49 5.48 -2.19 5.48 -1.34 0 -1.83 -1.46 -1.83 -5.48z"/>
  <path d="M1030.97 348.04 c-1.46 -5.48 -0.85 -8.28 1.70 -8.28 2.07 0 2.44 0.85 2.44 5.48 0 5.97 -2.80 7.79 -4.14 2.80z"/>
  <path d="M1087.23 329.65 c-2.56 -10.59 -2.80 -14.61 -0.61 -14 1.70 0.61 5.24 10.59 6.45 18.02 0.73 4.26 0.49 4.87 -1.46 4.87 -1.83 0 -2.68 -1.83 -4.38 -8.89z"/>
  <path d="M1030.24 337.08 c0 -0.24 -0.85 -4.99 -1.83 -10.72 -2.31 -12.79 -2.31 -12.18 0.37 -12.18 1.83 0 2.56 1.58 3.65 9.50 1.95 12.06 1.83 13.64 -0.37 13.64 -0.97 0 -1.83 -0.12 -1.83 -0.24z"/>
  <path d="M1078.95 309.31 c0 -1.34 -0.85 -2.44 -1.83 -2.44 -0.97 0 -1.83 -1.10 -1.83 -2.44 0 -1.58 -0.85 -2.44 -2.44 -2.44 -1.95 0 -2.44 -0.85 -2.44 -3.65 0 -3.65 0 -3.65 3.17 -1.70 3.29 2.19 11.45 12.18 11.45 14 0 0.61 -1.34 1.10 -3.04 1.10 -2.19 0 -3.04 -0.61 -3.04 -2.44z"/>
  <path d="M1027.80 299.45 c0 -2.44 7.43 -8.28 11.93 -9.62 6.21 -1.70 7.55 -1.58 7.55 0.97 0 1.34 -1.70 2.56 -5.11 3.65 -2.80 0.85 -5.85 2.68 -6.82 4.02 -1.70 2.44 -7.55 3.29 -7.55 0.97z"/>
  <path d="M1050.94 291.05 c0 -2.56 1.22 -2.92 5.85 -1.70 4.38 1.22 3.29 4.14 -1.58 4.14 -3.41 0 -4.26 -0.49 -4.26 -2.44z"/>
 </g>
 <g fill="#ef6459">
  <path d="M610.71 739.92 c-9.99 -1.95 -16.68 -4.63 -22.29 -8.77 -3.41 -2.68 -3.90 -3.78 -3.90 -8.89 0 -4.75 0.61 -6.33 3.41 -8.89 7.67 -7.18 9.50 -7.67 38.60 -7.92 29.84 -0.37 35.07 0.49 42.74 7.18 3.65 3.29 4.14 4.38 4.14 9.62 0 5.60 -0.37 6.09 -4.75 9.01 -2.56 1.83 -8.77 4.63 -13.64 6.33 -10.96 3.78 -31.30 4.87 -44.33 2.31z"/>
 </g>
 <g fill="#f3832b">
  <path d="M895.43 677.69 c0.24 -4.02 2.31 -16.44 4.63 -27.64 3.41 -16.68 4.51 -20.46 6.33 -20.95 1.83 -0.49 2.19 0 1.70 1.83 -0.85 2.92 -0.12 2.92 9.13 -0.61 25.70 -9.62 46.64 -26.43 63.08 -50.66 10.84 -15.83 22.04 -43.84 23.99 -59.79 0.49 -4.14 -0.12 -7.92 -2.44 -14.61 -4.26 -12.30 -6.21 -27.03 -5.36 -41.04 1.10 -19.73 3.90 -28.01 20.58 -60.65 14 -27.28 16.81 -47.01 11.20 -78.79 -0.85 -5.48 -1.70 -13.15 -1.70 -17.17 0 -6.58 0.37 -7.43 4.63 -11.69 5.60 -5.72 12.91 -7.92 22.16 -6.82 31.42 3.78 46.40 37.63 37.51 85.12 -3.53 19.36 -4.38 18.63 19 16.68 42.01 -3.53 57.36 0.49 65.76 17.29 4.75 9.38 4.51 21.31 -0.49 30.81 l-3.65 6.94 4.87 5.60 c8.77 10.59 12.42 23.14 9.74 34.22 -1.58 6.94 -7.18 15.47 -11.33 17.29 -4.26 1.95 -5.85 9.50 -3.65 16.07 1.10 2.80 2.19 8.52 2.44 12.66 1.34 15.95 -9.38 27.89 -32.15 35.80 l-6.45 2.19 0 -2.80 c0 -2.80 -0.37 -2.92 -14.86 -3.78 -23.14 -1.34 -34.95 -5.60 -39.33 -13.88 -4.63 -9.01 -3.41 -23.50 2.68 -30.69 3.17 -3.65 3.53 -3.78 9.99 -3.04 25.57 2.92 47.25 1.95 61.86 -2.92 l7.06 -2.19 -7.31 0.73 c-4.02 0.49 -18.27 0.85 -31.66 0.85 -19.48 0 -25.70 -0.49 -31.17 -2.19 -13.52 -4.02 -18.14 -10.84 -18.14 -26.43 0 -11.08 1.83 -16.68 6.70 -20.46 3.04 -2.44 4.26 -2.56 18.63 -1.95 11.20 0.49 19 0.24 28.25 -1.22 11.45 -1.83 29.84 -6.58 28.86 -7.55 -0.12 -0.24 -4.99 0.37 -10.59 1.22 -14.98 2.44 -40.55 3.41 -50.78 2.07 -18.14 -2.31 -25.82 -9.26 -26.91 -24.36 -0.61 -9.99 0.85 -15.34 6.21 -20.82 4.99 -5.11 11.69 -7.92 24.23 -10.35 11.08 -2.07 14.61 -3.78 5.24 -2.56 -16.93 2.19 -26.43 6.09 -33.73 13.76 -4.99 5.24 -9.38 13.88 -9.50 18.75 0 3.17 8.16 20.82 10.11 21.55 1.34 0.61 0.97 11.20 -0.37 11.20 -0.61 0 -1.22 1.10 -1.22 2.56 0 2.19 -4.87 18.14 -7.92 25.82 -0.73 1.70 -0.12 2.07 3.29 2.07 3.53 0 4.51 0.61 6.09 4.14 1.10 2.19 3.65 5.97 5.72 8.40 4.63 5.11 4.75 9.01 0.73 14.98 -4.02 5.85 -5.85 13.03 -4.87 18.88 1.58 9.38 12.18 21.07 22.16 24.36 3.53 1.10 4.02 1.83 4.02 5.36 l0 4.02 -10.11 0.85 c-16.93 1.46 -39.33 -2.44 -49.44 -8.65 -2.19 -1.22 -1.70 -0.61 1.10 1.95 6.21 5.48 15.34 9.62 23.50 10.47 5.85 0.73 6.94 1.22 6.94 3.17 0 2.19 -0.61 2.31 -5.72 1.58 -3.29 -0.37 -6.94 -0.85 -8.16 -0.97 -1.70 -0.12 -4.63 3.17 -10.59 12.06 -25.82 38.24 -58.94 63.69 -101.08 77.69 -13.88 4.63 -27.52 7.67 -39.21 8.77 -4.75 0.49 -8.16 1.46 -9.13 2.80 -1.46 1.70 -1.58 0.85 -1.10 -5.36z"/>
  <path d="M1085.04 581 c0 -1.95 0.73 -2.56 3.41 -2.56 1.95 0 7.79 -1.10 13.03 -2.44 5.24 -1.34 10.47 -2.44 11.81 -2.44 1.22 0 2.19 -0.49 2.19 -0.97 0 -1.46 10.96 -5.11 14.98 -5.11 13.52 0 -18.39 12.42 -38.97 15.22 -5.97 0.73 -6.45 0.61 -6.45 -1.70z"/>
  <path d="M838.44 496.12 c-14 -0.85 -39.46 -2.44 -56.50 -3.41 -16.93 -1.10 -33 -1.95 -35.56 -1.95 -3.29 0 -4.75 -0.49 -4.75 -1.70 0 -0.97 0.97 -1.95 2.07 -2.19 1.95 -0.37 2.07 -3.17 1.70 -35.07 l-0.37 -34.71 -3.17 -5.85 c-1.95 -3.53 -5.48 -7.55 -8.77 -9.74 l-5.48 -3.90 -28.25 -0.37 c-22.04 -0.37 -28.37 -0.73 -28.37 -1.95 0 -4.02 7.43 -37.39 8.77 -39.70 0.85 -1.34 3.90 -3.65 6.82 -5.11 l5.36 -2.56 32.27 6.45 c29.96 6.09 32.51 6.33 33.85 4.38 1.22 -1.58 2.19 -1.70 4.75 -0.73 1.83 0.61 4.63 1.22 6.33 1.22 2.07 0 2.92 0.73 2.92 2.31 0 1.95 1.34 2.68 6.45 3.65 3.41 0.73 29.10 5.72 56.87 11.08 27.77 5.36 52 10.35 53.95 11.08 1.83 0.85 4.75 3.04 6.33 4.99 4.02 4.75 3.90 9.38 -0.61 32.15 -10.96 55.65 -13.52 70.51 -12.30 70.87 0.73 0.24 1.34 0.97 1.34 1.58 0 1.34 -13.27 1.22 -45.67 -0.85z"/>
  <path d="M222.85 416.97 c-4.38 -0.85 -24.84 -4.87 -45.67 -9.01 -42.13 -8.16 -44.69 -9.13 -50.17 -19.36 -3.41 -6.45 -3.78 -17.66 -0.85 -23.99 2.80 -5.85 10.47 -12.30 16.56 -14 6.82 -1.83 9.26 -1.46 58.45 8.04 42.99 8.28 49.93 10.47 53.70 16.56 0.73 1.22 2.68 2.31 4.14 2.31 3.41 0 4.51 4.87 3.78 17.29 -0.61 10.72 -3.65 18.02 -7.06 17.17 -1.34 -0.37 -3.90 0.49 -5.72 1.70 -7.67 5.36 -13.76 6.09 -27.16 3.29z"/>
 </g>
 <g fill="#71b364">
  <path d="M713.62 489.54 c-7.06 -0.49 -23.75 -1.58 -37.14 -2.31 -13.40 -0.85 -41.28 -2.44 -62.11 -3.78 -20.70 -1.34 -44.45 -2.68 -52.61 -3.17 -13.88 -0.73 -14.98 -0.97 -14.98 -3.29 0 -2.31 0.61 -2.31 12.54 -1.58 6.82 0.37 36.05 2.07 64.79 3.78 28.86 1.70 64.42 3.90 79.16 4.87 14.74 0.97 27.77 1.83 28.98 1.83 1.22 0 2.07 0.97 2.07 2.44 0 2.68 0.85 2.68 -20.70 1.22z"/>
  <path d="M446.31 472.98 c-34.10 -2.19 -64.18 -4.02 -66.61 -4.02 -3.29 -0.12 -4.63 -0.61 -4.63 -1.95 0 -0.97 0.85 -1.83 1.95 -1.83 2.44 0 3.17 3.90 -11.33 -61.50 -6.33 -28.74 -11.57 -54.80 -11.69 -57.84 -0.12 -7.06 2.80 -12.54 7.92 -14.98 2.19 -0.97 14.13 -4.02 26.55 -6.82 12.42 -2.68 43.96 -9.62 70.02 -15.34 152.95 -33.73 144.43 -32.15 151.25 -27.77 6.09 3.90 6.58 5.85 21.55 79.03 3.78 18.14 6.82 33.85 6.82 34.95 0 1.95 -3.29 2.07 -39.09 2.07 -27.28 0 -40.67 0.49 -44.21 1.46 -7.18 2.19 -15.71 11.08 -17.54 18.27 -0.85 3.53 -1.46 15.83 -1.46 31.91 0 22.53 0.24 26.30 1.83 26.30 0.97 0 1.83 0.61 1.83 1.22 0 2.07 -27.40 1.10 -93.16 -3.17z"/>
 </g>
 <g fill="#d06b1f">
  <path d="M893.85 680.13 c0 -2.44 1.95 -12.91 4.26 -23.38 2.31 -10.47 4.26 -20.09 4.26 -21.31 0 -1.34 0.85 -2.19 2.44 -2.19 1.58 0 2.44 0.85 2.44 2.31 0 2.19 -4.51 25.21 -7.31 37.26 -2.68 11.33 -6.09 15.47 -6.09 7.31z"/>
  <path d="M1061.29 582.10 c-3.29 -0.61 -6.70 -0.97 -7.55 -0.61 -0.73 0.24 -1.58 0.12 -1.83 -0.37 -0.24 -0.49 -3.04 -2.19 -6.45 -3.90 -8.65 -4.38 -20.09 -15.59 -20.09 -19.85 0 -5.36 3.04 -5.24 11.81 0.85 4.63 3.04 11.45 6.70 15.47 8.04 9.50 3.17 25.09 5.11 34.71 4.02 l7.92 -0.73 -6.21 -2.80 c-6.82 -2.92 -14.98 -10.35 -18.14 -16.56 -2.56 -4.99 -3.53 -17.17 -1.83 -23.62 0.73 -2.80 2.68 -6.94 4.26 -9.38 l2.92 -4.26 -2.80 -2.68 c-1.58 -1.46 -4.14 -5.11 -5.72 -8.04 -1.46 -2.92 -3.04 -5.36 -3.41 -5.36 -0.37 0 -2.92 2.31 -5.48 5.11 -5.48 5.60 -14.13 9.99 -17.66 8.89 -3.41 -1.10 -3.04 -2.31 1.58 -5.85 7.67 -5.85 14.37 -16.07 18.63 -28.62 2.31 -6.45 4.14 -13.76 4.14 -16.07 0 -3.17 0.37 -3.78 1.22 -2.44 0.97 1.58 1.22 1.58 1.22 -0.24 0 -1.10 -0.37 -2.19 -0.85 -2.44 -0.61 -0.12 -3.04 -4.38 -5.48 -9.38 -3.78 -7.18 -4.63 -10.23 -4.63 -15.83 0.12 -15.95 12.30 -29.59 30.44 -33.98 14.25 -3.53 34.58 -2.68 38.73 1.46 2.19 2.19 2.68 1.95 -18.63 5.48 -16.93 2.80 -23.99 5.48 -29.47 11.08 -4.99 5.11 -6.94 10.96 -5.97 17.54 1.83 11.57 10.59 18.27 26.55 20.34 11.69 1.46 38.24 -0.61 56.38 -4.38 15.34 -3.17 18.75 -2.80 14.61 1.83 -8.89 9.74 -36.29 16.20 -67.34 15.71 -14.25 -0.24 -16.44 0 -18.63 2.07 -8.77 7.79 -7.67 26.79 2.07 34.46 6.94 5.48 15.10 6.82 40.67 6.70 16.32 0 26.79 -0.73 33.49 -2.07 5.48 -0.97 10.23 -1.46 10.84 -0.85 0.61 0.61 0.49 2.56 -0.37 4.63 -1.34 3.04 -2.80 4.02 -10.23 6.21 -4.87 1.34 -12.54 3.04 -17.29 3.78 -11.08 1.58 -37.51 1.58 -45.67 0 -5.60 -1.10 -6.82 -0.97 -8.89 0.85 -3.90 3.53 -6.09 9.13 -6.09 15.10 0.24 16.68 14 23.50 47.25 23.26 10.11 -0.12 20.82 -0.37 24.11 -0.49 5.72 -0.37 5.72 -0.37 3.04 1.70 -3.65 2.68 -39.70 16.20 -51.88 19.36 -10.72 2.80 -33.98 4.02 -43.47 2.31z"/>
  <path d="M850.37 497.70 c-19.85 -1.10 -21.07 -1.34 -21.07 -3.65 0 -2.31 0.49 -2.44 14.98 -1.58 8.16 0.49 19.61 1.10 25.45 1.58 9.62 0.61 10.47 0.49 11.08 -1.58 0.49 -1.95 0.61 -1.83 0.73 0.49 0.12 1.58 0.85 2.68 2.07 2.68 1.10 0 1.70 0.73 1.46 1.58 -0.73 1.95 -8.28 2.07 -34.71 0.49z"/>
  <path d="M798.62 494.78 c-8.65 -0.49 -9.50 -0.73 -9.50 -3.04 0 -2.44 0.37 -2.44 15.59 -1.70 18.63 0.97 22.16 1.58 22.16 3.90 0 1.70 -3.90 1.83 -28.25 0.85z"/>
  <path d="M768.42 490.76 c0 -2.19 0.85 -2.44 7.06 -2.44 8.65 0 12.42 0.97 12.42 3.17 0 1.34 -2.31 1.70 -9.74 1.70 -8.89 0 -9.74 -0.24 -9.74 -2.44z"/>
  <path d="M746.86 491.13 c-4.26 -0.49 -5.72 -3.90 -1.83 -4.14 12.30 -0.61 22.16 0.85 22.16 3.29 0 1.34 -1.83 1.70 -8.16 1.46 -4.63 0 -10.11 -0.37 -12.18 -0.61z"/>
  <path d="M254.76 411.85 c-2.68 -0.37 -2.68 -0.49 -0.49 -3.65 5.24 -7.43 6.58 -18.63 3.29 -26.55 l-1.83 -4.26 3.41 0.37 c2.56 0.24 3.41 1.22 4.02 4.02 1.46 6.70 1.10 15.95 -0.73 22.16 -2.07 6.94 -3.65 8.65 -7.67 7.92z"/>
  <path d="M763.67 362.77 c-6.33 -1.22 -6.45 -1.34 -5.48 -4.02 0.61 -1.58 1.70 -1.95 4.26 -1.46 1.95 0.49 5.11 1.10 7.06 1.46 2.80 0.49 3.41 1.10 2.92 3.04 -0.73 2.56 -0.85 2.56 -8.77 0.97z"/>
 </g>
 <g fill="#2872ab">
  <path d="M463.12 1043.02 c-21.31 -5.72 -35.56 -21.55 -39.33 -43.47 -2.80 -16.07 3.65 -35.07 15.71 -46.40 l5.72 -5.36 -13.40 -0.73 c-20.82 -0.97 -35.80 -7.43 -47.74 -20.82 -18.63 -20.46 -21.55 -55.41 -6.58 -78.67 2.07 -3.17 4.75 -6.70 6.09 -7.92 2.44 -2.19 2.44 -2.07 2.44 2.31 0 2.80 -0.61 4.75 -1.83 5.11 -0.97 0.49 -1.83 1.46 -1.83 2.31 0 0.85 -0.49 1.83 -0.97 2.07 -0.61 0.24 -2.68 4.26 -4.51 8.89 -4.51 11.08 -5.48 26.18 -2.44 36.65 2.44 8.52 8.89 21.19 11.81 23.38 1.22 0.85 2.19 2.44 2.19 3.41 0 0.97 0.73 1.70 1.70 1.70 0.97 0 2.80 1.34 4.14 3.04 1.34 1.70 3.04 3.04 3.78 3.04 0.73 0 1.34 0.49 1.34 1.10 0 0.61 0.97 1.34 2.19 1.70 1.10 0.37 5.60 2.19 9.99 4.02 6.82 2.92 10.11 3.53 23.14 4.02 l15.22 0.73 0.37 4.02 c0.49 4.26 -3.29 8.65 -7.31 8.77 -1.34 0 -2.19 0.97 -2.19 2.44 0 1.34 -1.10 3.04 -2.44 3.90 -1.34 0.85 -2.44 2.19 -2.44 3.04 0 0.73 -0.73 2.19 -1.58 3.04 -0.85 0.85 -2.92 5.60 -4.38 10.47 -2.19 6.58 -2.68 10.47 -2.19 15.34 0.61 6.58 6.45 22.89 8.40 23.62 0.49 0.24 0.97 0.85 0.97 1.46 0 1.10 9.74 10.96 10.84 10.96 0.49 0 1.95 0.97 3.29 2.19 3.17 2.92 17.66 7.55 23.50 7.55 6.82 0 18.39 -3.90 25.09 -8.40 3.04 -2.07 6.94 -3.78 8.65 -3.78 2.44 0 2.92 -0.61 2.92 -3.65 0 -1.95 0.73 -4.02 1.58 -4.51 2.07 -1.34 8.16 -15.10 9.01 -20.46 0.49 -3.17 1.34 -4.26 3.17 -4.26 2.19 0 2.31 0.49 1.58 5.72 -1.95 14 -14 30.93 -26.79 37.39 -13.15 6.70 -24.84 8.16 -36.90 4.99z"/>
  <path d="M764.15 1043.14 c-9.99 -2.44 -17.78 -6.82 -25.09 -14.13 -7.67 -7.67 -11.20 -13.64 -13.88 -23.99 -3.29 -12.54 -1.70 -26.55 4.38 -38.36 1.46 -2.80 5.85 -8.28 9.62 -12.18 l7.06 -7.06 -120.68 0 -120.80 0.12 3.53 2.56 c5.97 4.38 14 16.56 16.56 24.96 3.17 10.11 3.17 13.76 0.12 13.76 -1.70 0 -2.44 -1.22 -3.04 -5.11 -0.73 -4.51 -2.68 -9.26 -8.40 -19.85 -0.61 -1.34 -3.90 -4.63 -7.06 -7.31 -5.11 -4.26 -5.97 -5.48 -5.97 -9.38 l0 -4.63 125.43 0 125.43 0 0 4.87 c0 2.68 -0.49 4.87 -1.10 4.87 -2.56 0 -14 13.40 -17.54 20.58 -3.53 7.18 -3.90 9.13 -3.90 19 0 9.99 0.37 11.69 4.14 19.48 2.31 4.75 5.11 9.26 6.45 10.11 1.22 0.85 2.19 2.44 2.19 3.41 0 0.97 0.85 1.70 1.83 1.70 0.97 0 2.44 1.10 3.29 2.44 0.85 1.34 2.19 2.44 3.04 2.44 0.85 0 1.58 0.49 1.58 1.10 0 1.70 19 7.43 24.96 7.43 6.94 0 17.90 -3.78 24.72 -8.52 2.80 -1.95 5.97 -3.65 6.94 -3.65 0.97 0 1.83 -0.85 1.83 -1.83 0 -0.97 1.83 -4.26 4.14 -7.18 6.21 -8.16 8.65 -15.71 8.65 -26.30 0 -9.13 -3.04 -20.58 -6.33 -24.11 -0.85 -0.85 -1.58 -2.31 -1.58 -3.29 0 -0.85 -0.85 -1.83 -1.83 -2.31 -1.10 -0.37 -1.83 -2.19 -1.83 -4.38 0 -3.17 -0.37 -3.65 -3.41 -3.65 -4.63 0 -6.33 -2.07 -6.33 -7.55 l0 -4.63 17.90 0 c21.07 0 24.72 -0.97 28.37 -7.55 2.31 -4.14 2.44 -5.24 1.22 -8.40 -1.83 -4.38 -7.92 -9.62 -11.08 -9.62 -1.46 0 -2.31 -0.85 -2.31 -2.44 0 -1.83 0.85 -2.44 3.53 -2.44 5.36 0 11.33 4.75 14 11.20 2.07 4.99 2.19 6.33 0.85 10.84 -1.83 6.09 -6.21 10.35 -12.18 12.06 -2.44 0.61 -11.45 1.22 -20.09 1.22 l-15.71 0 6.33 6.70 c20.09 21.19 20.70 53.70 1.46 74.04 -13.03 13.76 -31.54 19.36 -49.44 14.98z"/>
  <path d="M464.95 1015.99 c-1.22 -0.24 -2.19 -1.10 -2.19 -1.70 0 -0.61 -0.73 -1.10 -1.46 -1.10 -2.31 -0.12 -7.92 -6.21 -9.38 -10.11 -1.70 -4.51 -1.70 -17.66 0 -22.65 0.97 -2.80 2.07 -3.78 4.26 -3.78 2.31 0 2.92 -0.61 2.92 -3.17 0 -2.31 0.97 -3.41 4.26 -4.87 5.72 -2.31 20.58 -2.31 23.02 0.12 0.97 0.97 2.56 1.83 3.53 1.83 1.95 0 5.85 4.14 8.28 8.52 0.97 1.70 1.58 6.94 1.58 12.18 0 10.35 -2.56 17.05 -6.58 17.05 -1.58 0 -2.44 0.85 -2.44 2.56 0 3.53 -6.82 5.97 -16.07 5.85 -4.26 -0.12 -8.65 -0.37 -9.74 -0.73z m19.36 -6.09 c4.75 -2.19 9.62 -8.89 10.84 -14.61 2.80 -13.88 -10.35 -26.67 -24.11 -23.62 -15.95 3.65 -21.80 22.53 -10.47 34.10 2.19 2.19 5.11 4.51 6.45 5.11 4.14 1.58 12.79 1.22 17.29 -0.97z"/>
  <path d="M765.86 1015.62 c-4.63 -1.34 -9.62 -4.87 -9.62 -6.82 0 -0.97 -0.49 -1.70 -1.10 -1.70 -1.10 0 -3.17 -4.63 -4.38 -10.23 -0.97 -4.51 0.49 -16.20 2.31 -18.14 0.73 -0.85 1.95 -2.68 2.68 -3.90 2.31 -4.26 11.20 -7.92 19.48 -7.92 10.72 0 15.10 1.83 15.10 6.21 0 3.04 0.49 3.53 3.53 3.53 2.68 0 3.78 0.73 4.99 3.65 1.95 4.63 1.22 23.38 -0.97 24.11 -0.73 0.24 -1.46 1.10 -1.46 1.95 0 2.31 -4.87 6.45 -9.99 8.65 -4.75 1.95 -15.22 2.31 -20.58 0.61z m18.27 -5.36 c5.11 -2.68 10.59 -9.62 11.57 -14.61 0.97 -5.36 -0.85 -12.66 -4.26 -17.05 -7.31 -9.38 -22.77 -9.62 -31.17 -0.49 -9.50 10.11 -5.11 28.01 8.16 33 3.53 1.34 12.30 0.85 15.71 -0.85z"/>
  <path d="M417.45 914.30 c-1.95 -0.61 -3.41 -1.58 -3.41 -2.19 0 -0.49 -1.10 -1.22 -2.44 -1.58 -1.34 -0.37 -2.44 -1.46 -2.44 -2.44 0 -0.97 -1.10 -2.07 -2.44 -2.44 -1.34 -0.37 -2.44 -1.46 -2.44 -2.56 0 -1.10 -0.49 -1.95 -1.10 -1.95 -1.58 0 -3.78 -6.94 -3.78 -11.69 0 -6.45 2.92 -4.99 5.24 2.44 2.92 9.26 9.99 16.07 19.36 18.63 8.52 2.44 9.62 5.24 1.95 5.11 -2.92 0 -6.70 -0.61 -8.52 -1.34z"/>
  <path d="M399.43 876.80 c0 -4.99 3.17 -14.61 4.87 -14.61 0.49 0 1.22 -1.10 1.58 -2.31 0.85 -3.53 9.99 -9.50 16.81 -10.96 8.77 -1.95 16.93 -1.70 16.93 0.37 0 1.83 -3.53 3.17 -8.52 3.17 -6.58 0 -12.54 2.80 -18.27 8.28 -4.75 4.63 -6.33 7.18 -8.04 13.40 -2.44 8.77 -5.36 10.23 -5.36 2.68z"/>
  <path d="M440.83 848.79 c0 -2.19 0.85 -2.44 7.92 -2.44 5.97 0 7.92 0.37 7.92 1.70 0 2.07 -3.78 3.17 -10.59 3.17 -4.38 0 -5.24 -0.37 -5.24 -2.44z"/>
  <path d="M459.10 847.57 c0 -2.19 0.85 -2.44 7.31 -2.44 5.36 0 7.31 0.49 7.31 1.70 0 1.95 -3.65 3.17 -9.99 3.17 -3.78 0 -4.63 -0.49 -4.63 -2.44z"/>
  <path d="M476.15 846.35 c0 -2.19 0.85 -2.44 7.92 -2.44 5.97 0 7.92 0.37 7.92 1.70 0 2.07 -3.78 3.17 -10.59 3.17 -4.38 0 -5.24 -0.37 -5.24 -2.44z"/>
  <path d="M493.20 845.13 c0 -2.19 0.85 -2.44 7.31 -2.44 5.36 0 7.31 0.49 7.31 1.70 0 1.95 -3.65 3.17 -9.99 3.17 -3.78 0 -4.63 -0.49 -4.63 -2.44z"/>
  <path d="M509.03 844.04 c0 -2.07 0.73 -2.56 4.02 -2.56 2.31 0 9.13 -0.37 15.22 -0.73 9.74 -0.73 11.20 -0.61 11.20 1.10 0 2.31 -2.92 2.92 -18.51 4.02 -11.57 0.73 -11.93 0.73 -11.93 -1.83z"/>
  <path d="M540.69 841.48 c0 -2.19 0.85 -2.44 7.92 -2.44 5.97 0 7.92 0.37 7.92 1.70 0 2.07 -3.78 3.17 -10.59 3.17 -4.38 0 -5.24 -0.37 -5.24 -2.44z"/>
  <path d="M560.18 840.26 c0 -2.19 0.85 -2.44 7.92 -2.44 5.97 0 7.92 0.37 7.92 1.70 0 2.07 -3.78 3.17 -10.59 3.17 -4.38 0 -5.24 -0.37 -5.24 -2.44z"/>
  <path d="M577.22 839.05 c0 -2.19 0.85 -2.44 7.92 -2.44 5.97 0 7.92 0.37 7.92 1.70 0 2.07 -3.78 3.17 -10.59 3.17 -4.38 0 -5.24 -0.37 -5.24 -2.44z"/>
  <path d="M594.27 838.07 c0 -1.95 2.68 -2.31 27.77 -4.26 33.49 -2.56 34.34 -2.56 34.34 -0.24 0 2.19 -2.19 2.56 -32.27 4.87 -30.69 2.31 -29.84 2.31 -29.84 -0.37z"/>
  <path d="M392.49 831.25 l5.85 -5.24 -9.13 -33.98 c-4.99 -18.63 -11.33 -42.50 -14.13 -52.85 -2.80 -10.35 -8.04 -29.84 -11.69 -43.23 -3.65 -13.40 -10.96 -40.80 -16.32 -60.89 -5.24 -20.09 -12.66 -47.74 -16.44 -61.50 -3.65 -13.76 -11.08 -41.40 -16.32 -61.50 -24.36 -91.70 -23.14 -87.92 -30.20 -92.67 -3.17 -2.19 -11.08 -4.26 -27.40 -7.31 l-3.29 -0.61 2.92 -5.48 c3.90 -7.31 4.75 -14.25 2.68 -22.04 -2.07 -7.79 -2.80 -7.67 17.41 -3.90 24.11 4.26 36.90 12.91 45.54 30.57 3.29 6.70 15.34 47.13 15.34 51.51 0 0.37 3.41 0.61 7.67 0.61 9.26 0 13.03 0.97 13.03 3.17 0 1.34 -2.07 1.70 -8.52 1.70 -4.87 0 -8.52 -0.49 -8.52 -1.22 0 -0.61 -1.83 -1.22 -4.02 -1.22 l-4.02 0 -4.02 -16.20 c-5.24 -20.46 -9.86 -35.07 -11.93 -37.14 -0.85 -0.85 -1.58 -2.31 -1.58 -3.29 0 -0.85 -0.85 -1.83 -1.83 -2.31 -0.97 -0.37 -1.83 -1.22 -1.83 -1.83 0 -1.10 -6.94 -8.65 -8.04 -8.65 -0.37 0 -2.68 -1.34 -5.11 -3.04 -5.60 -3.78 -13.03 -6.33 -24.84 -8.40 l-9.26 -1.58 -0.61 10.47 c-0.37 5.72 -0.85 11.57 -1.10 12.79 -0.37 2.07 0.85 2.56 7.92 3.90 10.59 1.95 16.68 4.02 16.68 5.48 0 0.61 0.85 1.10 1.83 1.10 0.97 0 1.83 1.10 1.83 2.44 0 1.34 0.73 2.44 1.70 2.44 1.95 0 4.51 6.58 8.40 21.92 4.38 16.68 26.06 98.40 36.90 138.22 4.99 18.75 12.66 47.25 16.93 63.32 4.26 16.07 12.79 47.86 18.88 70.63 23.02 85.49 29.23 109.36 29.23 112.16 0 1.70 -0.85 3.29 -2.07 3.78 -1.22 0.49 -2.92 1.83 -3.78 3.04 -1.10 1.46 -3.04 2.19 -6.09 2.19 l-4.51 -0.12 5.85 -5.24z"/>
  <path d="M657.60 832.96 c0 -2.19 0.85 -2.44 7.92 -2.44 5.97 0 7.92 0.37 7.92 1.70 0 2.07 -3.78 3.17 -10.59 3.17 -4.38 0 -5.24 -0.37 -5.24 -2.44z"/>
  <path d="M675.86 831.74 c0 -2.19 0.85 -2.44 7.31 -2.44 5.36 0 7.31 0.49 7.31 1.70 0 1.95 -3.65 3.17 -9.99 3.17 -3.78 0 -4.63 -0.49 -4.63 -2.44z"/>
  <path d="M691.70 830.52 c0 -2.19 0.85 -2.44 7.92 -2.44 5.97 0 7.92 0.37 7.92 1.70 0 2.07 -3.78 3.17 -10.59 3.17 -4.38 0 -5.24 -0.37 -5.24 -2.44z"/>
  <path d="M709.96 829.30 c0 -2.19 0.85 -2.44 7.31 -2.44 5.36 0 7.31 0.49 7.31 1.70 0 1.95 -3.65 3.17 -9.99 3.17 -3.78 0 -4.63 -0.49 -4.63 -2.44z"/>
  <path d="M725.79 828.09 c0 -2.19 0.85 -2.44 7.31 -2.44 5.36 0 7.31 0.49 7.31 1.70 0 1.95 -3.65 3.17 -9.99 3.17 -3.78 0 -4.63 -0.49 -4.63 -2.44z"/>
  <path d="M741.62 826.99 c0 -2.19 0.73 -2.56 4.63 -2.56 2.44 0 9.86 -0.37 16.44 -0.85 10.23 -0.61 11.81 -0.49 11.81 1.22 0 2.31 -3.04 2.92 -19.73 4.02 -12.79 0.73 -13.15 0.73 -13.15 -1.83z"/>
  <path d="M775.72 824.43 c0 -2.19 0.85 -2.44 7.92 -2.44 5.97 0 7.92 0.37 7.92 1.70 0 2.07 -3.78 3.17 -10.59 3.17 -4.38 0 -5.24 -0.37 -5.24 -2.44z"/>
  <path d="M792.77 823.58 c0 -2.19 1.22 -2.56 11.81 -3.29 6.45 -0.49 14.25 -1.34 17.29 -2.07 6.82 -1.46 22.29 -8.40 23.62 -10.47 0.49 -0.85 1.46 -1.58 1.95 -1.58 1.46 0 12.42 -11.33 15.10 -15.47 8.16 -12.66 11.81 -25.33 23.38 -79.52 3.04 -14.37 7.67 -36.05 10.35 -48.10 6.70 -30.08 25.09 -116.42 28.37 -132.37 2.07 -10.84 2.92 -13.15 4.75 -13.15 1.34 0 2.19 0.85 2.19 2.19 0 1.10 -2.80 14.98 -6.21 30.69 -3.29 15.71 -8.52 39.82 -11.45 53.58 -2.92 13.76 -6.70 31.30 -8.40 38.97 -1.70 7.67 -5.24 24.48 -8.04 37.14 -18.02 84.88 -20.95 96.69 -27.16 108.38 -2.19 4.02 -7.43 10.84 -11.81 15.22 -13.76 13.76 -28.01 19.36 -54.43 21.31 -10.72 0.85 -11.33 0.73 -11.33 -1.46z"/>
  <path d="M428.05 819.32 c-3.04 -8.52 -21.31 -81.23 -21.31 -85 l0 -4.87 5.48 0 c6.33 0 7.55 2.68 1.95 4.38 l-3.41 1.10 9.38 35.32 c5.24 19.48 10.11 37.63 10.84 40.55 l1.46 5.11 6.58 0 c5.85 0 6.70 0.24 6.70 2.44 0 2.19 -0.85 2.44 -8.52 2.44 -5.72 0 -8.77 -0.49 -9.13 -1.46z"/>
  <path d="M448.14 817.86 c0 -2.19 3.78 -3.17 12.54 -3.17 6.33 0 6.94 -0.24 6.94 -2.80 0 -1.46 -2.68 -19.61 -6.09 -40.31 -3.29 -20.70 -6.09 -37.87 -6.09 -37.99 0 -0.24 -3.29 -0.49 -7.31 -0.49 -6.45 0 -7.31 -0.24 -7.31 -2.44 0 -2.19 0.85 -2.44 9.13 -2.44 8.40 0 9.13 0.24 9.74 2.80 1.58 6.82 12.79 79.16 12.79 82.81 0 4.14 -0.12 4.14 -6.33 4.99 -11.08 1.22 -18.02 0.97 -18.02 -0.97z"/>
  <path d="M479.32 796.79 c-1.83 -11.33 -4.99 -30.20 -6.94 -42.26 -4.51 -27.64 -4.51 -26.30 0.73 -26.30 2.92 0 4.26 0.61 4.26 1.83 0 0.97 -0.85 1.83 -1.95 1.83 -1.46 0 -1.83 0.85 -1.34 3.41 0.37 1.83 3.29 19.97 6.58 40.31 l5.85 36.90 14.37 -0.73 c13.52 -0.85 14.25 -0.73 14.25 1.46 0 2.07 -1.22 2.44 -11.81 3.04 -6.58 0.49 -13.88 0.85 -16.32 0.85 l-4.38 0 -3.29 -20.34z"/>
  <path d="M516.34 812.99 c0 -2.07 3.78 -3.17 10.72 -3.17 4.26 0 5.11 0.37 5.11 2.44 0 2.19 -0.85 2.44 -7.92 2.44 -5.97 0 -7.92 -0.37 -7.92 -1.70z"/>
  <path d="M533.38 811.77 c0 -1.83 3.65 -3.17 9.01 -3.17 3.41 0 3.41 -0.12 2.68 -5.11 -3.41 -25.09 -4.63 -41.40 -3.41 -44.21 2.44 -5.36 11.93 -5.60 15.34 -0.24 0.97 1.46 2.56 10.35 3.65 20.34 1.10 9.74 2.31 19.97 2.68 22.77 l0.73 5.24 9.01 -0.85 c8.65 -0.73 9.01 -0.61 9.01 1.95 0 2.31 -0.73 2.56 -5.97 2.56 -3.17 0 -8.28 -0.37 -11.33 -0.73 l-5.36 -0.73 -2.44 -22.53 c-2.19 -19.48 -2.80 -22.77 -5.11 -25.09 -2.44 -2.44 -2.80 -2.44 -4.63 -0.61 -1.95 1.83 -1.95 3.29 0 20.09 1.10 9.86 1.95 21.19 1.95 25.09 l0 6.94 -7.92 0 c-5.97 0 -7.92 -0.37 -7.92 -1.70z"/>
  <path d="M584.53 808.11 c0 -2.19 3.29 -2.80 19.24 -3.90 11.81 -0.73 12.42 -0.61 12.42 1.58 0 2.19 -1.22 2.56 -11.81 3.17 -17.54 1.22 -19.85 1.10 -19.85 -0.85z"/>
  <path d="M635.68 801.90 c0 -2.92 0.61 -4.26 1.83 -4.26 0.97 0 1.83 0.85 1.83 1.83 0 1.10 1.10 1.83 3.04 1.83 2.19 0 3.04 0.61 3.04 2.44 0 2.07 -0.85 2.44 -4.87 2.44 -4.75 0 -4.87 -0.12 -4.87 -4.26z"/>
  <path d="M647.86 803.24 c0 -2.07 3.78 -3.17 10.72 -3.17 4.26 0 5.11 0.37 5.11 2.44 0 2.19 -0.85 2.44 -7.92 2.44 -5.97 0 -7.92 -0.37 -7.92 -1.70z"/>
  <path d="M621.06 798.86 c0 -4.02 0.37 -4.87 2.44 -4.87 2.07 0 2.44 0.85 2.44 4.87 0 4.02 -0.37 4.87 -2.44 4.87 -2.07 0 -2.44 -0.85 -2.44 -4.87z"/>
  <path d="M664.90 802.03 c0 -2.07 3.78 -3.17 11.33 -3.17 4.87 0 5.72 0.37 5.72 2.44 0 2.19 -0.85 2.44 -8.52 2.44 -6.45 0 -8.52 -0.37 -8.52 -1.70z"/>
  <path d="M683.17 800.81 c0 -1.95 3.65 -3.17 10.11 -3.17 3.65 0 4.87 -0.49 5.36 -2.44 1.10 -4.14 4.02 -2.92 4.02 1.70 0 4.99 -1.22 5.60 -11.69 5.60 -5.85 0 -7.79 -0.37 -7.79 -1.70z"/>
  <path d="M712.40 798.01 c0 -1.22 0.61 -9.50 1.46 -18.27 1.22 -14.86 1.58 -16.20 3.78 -16.20 2.19 0 2.31 0.61 1.70 7.67 -0.49 4.14 -1.22 11.45 -1.58 16.07 l-0.73 8.52 6.82 -0.37 c6.21 -0.49 6.82 -0.24 6.82 2.07 0 2.31 -0.73 2.56 -9.13 2.56 -7.92 0 -9.13 -0.24 -9.13 -2.07z"/>
  <path d="M731.88 797.28 c0 -2.44 3.04 -2.92 21.07 -4.02 14 -0.73 14.25 -0.73 14.25 1.83 0 2.19 -0.73 2.56 -4.63 2.56 -2.68 0 -10.59 0.37 -17.66 0.85 -11.33 0.61 -13.03 0.49 -13.03 -1.22z"/>
  <path d="M768.42 794.72 c0 -1.10 1.58 -2.19 4.26 -2.68 2.31 -0.37 4.26 -1.10 4.26 -1.58 0 -1.46 7.18 -57.84 7.92 -61.86 l0.73 -4.02 -10.47 0 c-9.50 0 -10.35 -0.24 -10.35 -2.44 0 -2.31 0.85 -2.44 12.18 -2.44 l12.18 0 0 6.21 c0 3.29 -1.58 18.51 -3.53 33.73 -2.07 15.22 -3.78 29.59 -4.02 31.91 -0.37 4.26 -0.37 4.26 -6.70 4.63 -5.11 0.24 -6.45 0 -6.45 -1.46z"/>
  <path d="M792.04 783.52 c0.49 -5.97 2.31 -22.89 4.14 -37.63 l3.41 -26.79 13.64 -0.37 c11.08 -0.24 13.64 0 13.64 1.46 0 2.31 -3.78 3.17 -14.25 3.17 -4.87 0 -8.89 0.12 -8.89 0.37 0 0.12 -1.70 13.40 -3.65 29.47 -4.14 32.88 -4.38 37.14 -2.07 37.14 0.73 0 5.97 -0.49 11.57 -1.22 12.06 -1.34 20.46 -5.48 26.55 -12.91 5.11 -6.21 6.70 -10.72 11.45 -32.39 2.07 -9.62 4.02 -18.39 4.38 -19.48 0.37 -1.34 -0.24 -2.19 -2.19 -2.56 -1.83 -0.37 -1.22 -0.61 1.83 -0.73 4.26 -0.12 4.51 0.12 4.51 3.53 0 7.92 -10.23 49.93 -12.18 49.93 -0.49 0 -1.22 1.10 -1.58 2.44 -0.49 1.83 -1.70 2.44 -4.38 2.44 -3.41 0 -3.78 0.37 -3.78 3.78 0 3.29 -0.73 4.02 -6.94 6.82 -5.85 2.68 -9.13 3.29 -21.43 3.78 l-14.61 0.61 0.85 -10.84z"/>
  <path d="M699 787.66 c0 -5.85 1.22 -9.50 3.17 -9.50 1.22 0 1.70 1.83 1.70 6.70 0 5.85 -0.24 6.70 -2.44 6.70 -1.95 0 -2.44 -0.85 -2.44 -3.90z"/>
  <path d="M634.46 779.50 c0 -1.22 -0.85 -2.92 -1.83 -3.78 -1.83 -1.46 -6.70 -0.61 -6.70 1.34 0 0.61 -1.10 1.10 -2.56 1.10 -3.78 0 -2.56 -5.11 1.70 -7.06 4.38 -2.07 11.33 -0.97 13.03 2.19 2.19 4.02 1.46 8.52 -1.22 8.52 -1.58 0 -2.44 -0.85 -2.44 -2.31z"/>
  <path d="M700.22 772.43 c0.12 -8.28 2.07 -15.47 4.87 -17.66 5.60 -4.51 14.61 -1.58 14.61 4.87 0 3.53 -3.17 3.41 -6.09 0 l-2.31 -2.80 -2.68 2.68 c-2.07 2.07 -2.92 4.51 -3.29 10.11 -0.49 6.09 -0.85 7.31 -2.80 7.31 -1.83 0 -2.31 -0.85 -2.31 -4.51z"/>
  <path d="M624.47 749.30 c-1.22 -0.24 -2.19 -1.34 -2.19 -2.31 0 -1.22 1.70 -1.70 6.70 -1.70 4.87 0 6.70 0.49 6.70 1.70 0 2.56 -5.85 3.78 -11.20 2.31z"/>
  <path d="M608.40 746.98 c-9.99 -2.44 -23.38 -9.13 -29.96 -14.98 l-5.48 -4.87 4.63 -0.12 c3.04 0 4.87 0.61 5.24 1.83 0.49 0.97 1.46 1.83 2.44 1.83 0.85 0 2.07 0.73 2.56 1.58 0.49 0.85 2.80 2.31 4.99 3.29 2.31 0.85 4.75 2.19 5.48 2.92 1.70 1.58 16.32 5.60 20.22 5.60 1.70 0 2.56 0.73 2.56 2.44 0 2.92 -2.31 3.04 -12.66 0.49z"/>
  <path d="M636.90 746.62 c0 -1.95 0.73 -2.56 2.92 -2.56 1.58 0 6.94 -1.46 11.93 -3.17 4.87 -1.70 10.35 -3.41 12.30 -3.78 1.83 -0.37 3.29 -1.46 3.29 -2.31 0 -0.97 0.73 -1.70 1.70 -1.70 0.97 0 1.95 -0.85 2.44 -1.83 0.37 -0.97 2.07 -1.83 3.78 -1.83 2.07 0 3.04 -0.61 3.04 -2.19 0 -2.44 5.97 -8.77 8.28 -8.77 0.85 0 1.46 -1.10 1.46 -2.44 0 -1.34 0.85 -2.80 1.83 -3.17 0.97 -0.49 1.83 -1.46 1.83 -2.44 0 -0.97 0.61 -1.70 1.22 -1.70 0.73 0 1.22 -0.85 1.22 -1.83 0 -0.97 0.49 -1.83 1.10 -1.83 0.61 0 1.46 -1.34 1.83 -3.04 0.49 -1.70 1.34 -3.04 1.95 -3.04 0.73 0 1.22 -0.73 1.22 -1.46 0 -0.85 1.34 -4.87 3.04 -8.89 1.58 -4.02 3.04 -8.52 3.04 -9.99 0 -1.95 0.73 -2.80 2.44 -2.80 3.04 0 3.04 2.19 0.49 11.08 -5.85 19.61 -22.41 41.28 -39.33 51.51 -7.67 4.63 -18.51 8.65 -27.16 9.86 -5.36 0.85 -5.85 0.73 -5.85 -1.70z"/>
  <path d="M485.89 729.45 c0 -2.31 0.85 -2.44 13.27 -2.44 11.20 0 13.64 -0.37 16.07 -2.31 2.80 -2.31 2.92 -2.31 0.61 -4.87 -1.83 -1.95 -3.78 -2.56 -8.89 -2.56 -4.87 0 -6.45 -0.49 -6.45 -1.83 0 -2.19 7.06 -3.65 13.15 -2.68 5.11 0.85 8.77 4.63 8.77 9.01 0 7.92 -5.11 10.11 -23.99 10.11 -11.69 0 -12.54 -0.12 -12.54 -2.44z"/>
  <path d="M737.36 722.14 c-4.38 -4.87 -1.34 -14.61 4.51 -14.61 1.34 0 2.19 0.85 2.19 2.44 0 1.34 -0.85 2.44 -1.83 2.44 -1.22 0 -1.83 1.22 -1.83 3.65 0 2.44 0.61 3.65 1.83 3.65 0.97 0 1.83 1.10 1.83 2.44 0 3.17 -3.78 3.17 -6.70 0z"/>
  <path d="M562.25 715.44 c-9.38 -12.06 -17.90 -32.39 -17.90 -42.99 0 -2.19 1.34 -5.24 3.17 -7.43 4.02 -4.87 7.55 -4.87 22.53 -0.24 9.74 2.92 22.53 5.48 41.04 8.16 5.24 0.73 5.36 4.14 0.12 4.14 -7.67 0 -29.47 -3.90 -41.65 -7.31 -6.82 -2.07 -13.88 -3.65 -15.71 -3.65 -2.92 0 -3.29 0.61 -4.02 5.24 -0.61 3.78 -0.12 7.31 1.70 12.79 1.46 4.14 2.56 8.28 2.56 9.38 0 0.97 0.61 1.83 1.22 1.83 0.73 0 1.22 1.34 1.22 3.04 0 1.70 0.73 3.04 1.58 3.04 1.70 0 5.72 6.09 5.72 8.89 0 0.97 1.10 2.07 2.44 2.44 1.83 0.49 2.44 1.70 2.44 4.99 0 2.44 -0.24 4.38 -0.61 4.38 -0.37 0 -2.92 -3.04 -5.85 -6.70z"/>
  <path d="M401.26 719.46 c-0.73 -2.19 -15.10 -55.65 -21.80 -81.23 -3.04 -11.57 -5.60 -22.89 -5.60 -25.21 l0 -4.14 7.92 0 c7.06 0 7.92 0.24 7.92 2.44 0 2.07 -0.85 2.44 -5.48 2.44 -3.04 0 -5.48 0.49 -5.48 0.97 0 1.34 8.77 35.07 17.05 65.39 10.35 38.12 9.50 35.92 12.18 35.92 1.58 0 2.44 0.85 2.44 2.44 0 1.95 -0.85 2.44 -4.26 2.44 -2.44 0 -4.63 -0.73 -4.87 -1.46z"/>
  <path d="M421.35 718 c0 -2.44 3.90 -3.17 18.02 -3.17 11.45 0 12.42 -0.24 12.42 -2.31 0 -1.34 -3.29 -23.02 -7.31 -48.47 -4.02 -25.33 -7.31 -46.76 -7.31 -47.49 0 -1.10 -2.80 -1.58 -9.99 -1.58 -11.69 0 -15.59 -0.85 -15.59 -3.17 0 -1.34 2.92 -1.70 14 -1.70 13.03 0 14 0.12 14 2.31 0 1.34 0.49 2.56 0.97 2.80 0.61 0.24 2.80 11.57 4.99 25.33 2.19 13.76 5.60 34.83 7.55 46.88 1.95 12.06 3.53 23.87 3.53 26.30 0 4.38 0 4.38 -6.33 5.24 -3.53 0.37 -11.57 0.73 -17.66 0.73 -8.89 0 -11.33 -0.37 -11.33 -1.70z"/>
  <path d="M463.48 696.93 c-1.83 -11.93 -5.48 -34.83 -8.16 -50.90 -2.56 -16.07 -4.75 -30.44 -4.75 -31.91 0 -2.68 0.49 -2.80 7.67 -2.80 5.97 0 8.28 -0.49 9.74 -2.19 2.56 -2.80 2.56 -3.53 0.37 -5.85 -1.22 -1.22 -4.63 -1.70 -10.96 -1.70 -5.11 0 -9.26 -0.12 -9.26 -0.37 0 -0.49 -10.59 -67.95 -12.66 -81.23 -1.10 -6.33 -1.95 -13.03 -1.95 -14.86 0 -3.17 0.37 -3.41 4.63 -3.29 2.92 0.12 3.53 0.37 1.70 0.73 -1.58 0.37 -2.68 1.22 -2.31 1.95 0.24 0.85 3.65 21.92 7.55 46.88 l7.18 45.30 7.18 0 c10.23 0 15.34 3.29 15.47 9.86 0 5.97 -3.65 8.77 -12.18 9.38 l-7.55 0.61 0.73 3.41 c0.61 3.29 8.16 50.05 12.66 79.03 l2.19 14 6.94 0.37 c5.97 0.37 6.94 0.73 6.94 2.68 0 2.19 -0.85 2.44 -8.89 2.44 l-8.89 0 -3.41 -21.55z"/>
  <path d="M747.71 709.47 c0 -2.31 3.90 -3.17 16.20 -3.17 9.74 0 10.59 0.24 10.59 2.44 0 2.31 -0.85 2.44 -13.40 2.44 -10.59 0 -13.40 -0.37 -13.40 -1.70z"/>
  <path d="M783.03 708.14 c0 -0.97 0.73 -1.83 1.70 -1.83 0.97 0 2.07 -0.49 2.44 -0.97 0.61 -1.10 10.47 -76.35 10.47 -80.37 0 -1.95 -1.10 -2.44 -7.55 -3.17 -4.26 -0.49 -8.65 -1.83 -9.74 -2.80 -2.80 -2.44 -2.92 -10.47 -0.24 -13.03 3.29 -3.29 4.51 -2.31 3.65 2.80 -0.97 6.45 1.95 8.65 11.69 8.65 l7.06 0 0 4.63 c0 4.38 -9.13 77.82 -10.47 84.64 -0.61 2.80 -1.34 3.29 -4.87 3.29 -2.92 0 -4.14 -0.61 -4.14 -1.83z"/>
  <path d="M802.51 703.02 c0 -6.33 2.44 -26.79 8.40 -70.39 l1.95 -14.61 7.67 -0.37 c6.94 -0.37 7.55 -0.12 7.55 2.19 0 2.07 -0.73 2.44 -5.48 2.44 -4.63 0 -5.48 0.37 -6.09 2.80 -0.24 1.46 -2.44 18.02 -4.87 36.78 -2.31 18.75 -4.63 36.17 -4.99 38.73 l-0.73 4.51 5.60 0 c4.75 0 5.60 0.37 5.60 2.44 0 2.19 -0.85 2.44 -7.31 2.44 l-7.31 0 0 -6.94z"/>
  <path d="M829.30 707.04 c0 -1.10 0.12 -2.07 0.37 -2.07 0.12 -0.12 6.21 -0.49 13.52 -0.97 l13.27 -0.73 2.80 -12.79 c10.35 -47.25 13.88 -63.69 13.88 -65.27 0 -0.97 -1.22 -1.70 -2.68 -1.70 -4.75 0 -8.28 -1.46 -8.28 -3.17 0 -1.34 1.95 -1.70 7.92 -1.70 l7.92 0 0 4.87 c0 2.56 -1.10 9.38 -2.31 14.86 -1.34 5.60 -5.24 23.26 -8.65 39.33 -3.41 15.95 -6.45 29.47 -6.82 29.71 -0.37 0.37 -7.43 0.85 -15.71 1.10 -13.40 0.49 -15.22 0.37 -15.22 -1.46z"/>
  <path d="M641.77 675.62 c0 -2.07 3.53 -3.41 8.89 -3.41 5.60 0 26.06 -4.51 39.09 -8.52 12.79 -3.90 16.68 -3.78 19.61 0.37 4.38 6.21 0.24 9.50 -4.63 3.90 l-2.68 -3.17 -7.06 2.44 c-10.23 3.53 -32.88 8.40 -43.72 9.38 -8.04 0.73 -9.50 0.49 -9.50 -0.97z"/>
  <path d="M505.25 625.81 c-6.58 -2.44 -7.43 -11.81 -2.07 -22.16 4.02 -8.04 16.81 -20.34 21.07 -20.34 0.37 0 0.61 1.22 0.61 2.56 0 3.53 -3.29 5.85 -8.16 5.97 -3.78 0 -4.02 0.24 -4.02 4.26 0 2.19 -0.73 4.63 -1.46 5.11 -2.07 1.34 -7.06 11.93 -7.06 15.10 0 3.41 2.80 5.97 5.72 5.24 1.58 -0.49 3.04 -2.44 4.02 -5.72 2.31 -8.04 4.75 -11.81 7.31 -11.81 1.58 0 2.44 -0.85 2.44 -2.44 0 -1.34 0.85 -2.44 1.83 -2.44 0.97 0 1.83 -0.49 1.83 -1.22 0 -0.61 2.07 -1.70 4.63 -2.31 5.85 -1.70 19.73 -1.70 19.73 -0.12 0 0.73 1.70 1.22 3.65 1.22 2.07 0 3.65 0.61 3.65 1.22 0 0.73 0.85 1.22 1.83 1.22 0.97 0 1.83 1.10 1.83 2.31 0 1.58 0.97 2.56 2.80 2.80 1.83 0.24 3.04 1.58 3.90 4.38 0.61 2.07 1.58 3.90 2.07 3.90 0.49 0 1.22 1.95 1.70 4.26 0.85 4.63 4.02 5.72 7.31 2.44 2.07 -2.07 1.22 -9.86 -1.58 -12.54 -0.85 -0.85 -1.58 -2.44 -1.58 -3.41 0 -0.97 -0.49 -1.70 -1.22 -1.70 -0.61 0 -1.22 -1.10 -1.22 -2.44 0 -1.34 -0.73 -2.44 -1.70 -2.44 -0.97 0 -2.80 -1.22 -4.02 -2.80 -2.68 -3.41 -16.68 -10.59 -20.70 -10.59 -2.07 0 -2.80 -0.73 -2.80 -2.56 0 -2.44 0.49 -2.56 5.24 -1.83 16.68 2.68 32.27 17.78 35.32 34.58 1.34 6.45 -3.17 12.42 -9.38 12.42 -2.68 0 -7.67 -4.63 -8.52 -8.04 -1.46 -5.48 -7.06 -12.66 -12.54 -15.95 -14.37 -8.40 -33.37 0.12 -37.51 16.93 -1.46 5.97 -7.18 9.01 -12.91 6.94z"/>
  <path d="M744.67 626.18 c-3.90 -0.85 -6.58 -3.90 -8.16 -9.26 -2.31 -7.55 -11.20 -15.95 -18.75 -17.54 -12.42 -2.68 -24.11 3.29 -29.84 15.34 -1.46 3.17 -3.53 6.70 -4.51 7.92 -2.56 2.92 -6.33 2.68 -6.33 -0.37 0 -1.58 0.85 -2.44 2.44 -2.44 1.83 0 2.44 -0.85 2.44 -3.04 0 -1.95 0.73 -3.04 1.83 -3.04 1.22 0 1.83 -1.22 1.83 -3.65 0 -1.95 0.49 -3.65 1.10 -3.65 0.61 0 1.34 -1.10 1.70 -2.56 0.37 -1.34 1.83 -2.80 3.17 -3.17 1.46 -0.37 2.56 -1.10 2.56 -1.70 0 -0.61 1.10 -1.10 2.31 -1.10 1.34 0 2.56 -0.73 2.92 -1.46 0.24 -1.10 3.90 -1.58 12.42 -1.58 8.52 0 12.18 0.49 12.54 1.58 0.24 0.73 1.46 1.46 2.80 1.46 1.22 0 2.31 0.49 2.31 1.10 0 0.61 1.10 1.34 2.44 1.70 1.46 0.37 2.44 1.70 2.44 3.17 0 1.46 0.73 2.56 1.83 2.56 0.97 0 1.83 1.10 1.83 2.44 0 1.34 0.49 2.44 0.97 2.44 0.61 0 1.83 2.19 2.68 4.87 1.34 4.14 2.07 4.87 5.11 4.87 2.19 0 3.41 -0.61 3.41 -1.83 0 -0.97 1.10 -1.83 2.44 -1.83 4.87 0 1.95 6.94 -3.65 8.77 -0.97 0.24 -2.92 0.24 -4.26 0z"/>
  <path d="M670.99 622.28 c-3.41 -3.41 -3.04 -9.01 1.10 -17.90 6.33 -13.40 19.12 -23.26 32.76 -25.45 4.63 -0.73 5.11 -0.61 5.11 1.83 0 1.83 -0.73 2.56 -2.68 2.56 -1.58 0 -5.72 1.34 -9.26 3.04 -3.65 1.70 -7.31 3.04 -8.28 3.04 -0.97 0 -1.70 0.73 -1.70 1.58 0 1.95 -4.99 6.94 -6.94 6.94 -0.73 0 -1.58 1.70 -1.95 3.65 -0.49 2.07 -1.58 3.65 -2.44 3.65 -2.19 0 -3.90 10.84 -2.07 12.66 1.58 1.58 1.58 6.82 0 6.82 -0.61 0 -2.31 -1.10 -3.65 -2.44z"/>
  <path d="M748.32 609.50 c-1.22 -3.65 -2.68 -6.70 -3.29 -6.70 -0.49 0 -0.97 -0.61 -0.97 -1.22 0 -0.73 -1.95 -2.92 -4.26 -4.99 -2.31 -2.07 -4.26 -4.51 -4.26 -5.48 0 -0.97 -1.10 -1.70 -2.31 -1.70 -1.34 0 -3.17 -0.73 -4.02 -1.70 -0.97 -0.85 -4.51 -2.31 -8.04 -3.17 -4.87 -1.34 -6.33 -2.19 -6.33 -4.02 0 -2.07 0.61 -2.31 4.99 -1.58 12.18 1.95 26.06 12.91 31.91 25.33 3.90 8.16 4.26 11.93 1.10 11.93 -1.58 0 -2.80 -1.95 -4.51 -6.70z"/>
  <path d="M815.18 604.50 c-0.73 -3.65 5.60 -58.94 8.89 -78.06 0.61 -4.02 0.61 -4.02 7.79 -4.02 6.33 0 7.18 0.24 7.18 2.44 0 2.07 -0.85 2.44 -5.24 2.44 l-5.24 0 -4.51 35.68 c-2.56 19.48 -4.87 36.78 -5.24 38.36 -0.49 2.56 -0.24 2.68 9.50 2.68 11.69 0 15.59 0.85 15.59 3.17 0 1.34 -2.92 1.70 -14 1.70 l-13.88 0 -0.85 -4.38z"/>
  <path d="M796.42 605.84 c0 -0.97 0.85 -1.83 1.83 -1.83 0.97 0 1.83 -0.12 1.83 -0.24 0 -0.24 2.19 -17.29 4.87 -38.12 2.68 -20.70 4.87 -38.12 4.87 -38.60 0 -0.37 -1.58 -1.10 -3.65 -1.58 -1.95 -0.49 -3.65 -1.58 -3.65 -2.56 0 -2.07 10.35 -2.44 11.69 -0.37 0.49 0.85 -1.58 20.22 -4.51 43.23 l-5.36 41.89 -3.90 0 c-2.80 0 -4.02 -0.61 -4.02 -1.83z"/>
  <path d="M875.70 605.60 c1.95 -0.49 2.68 -3.41 14.61 -59.31 3.29 -15.10 3.29 -15.59 0.97 -16.20 -4.14 -1.10 -2.68 -4.02 1.95 -4.02 4.26 0 4.26 0.12 4.26 5.24 0 2.80 -3.41 20.82 -7.55 40.19 l-7.55 34.95 -4.38 -0.12 c-2.31 -0.12 -3.41 -0.37 -2.31 -0.73z"/>
  <path d="M428.66 599.14 c0 -1.58 0.85 -2.44 2.44 -2.44 1.34 0 2.44 -0.24 2.44 -0.49 0 -0.37 -3.29 -21.43 -7.31 -46.76 -4.02 -25.45 -7.31 -46.64 -7.31 -47.01 0 -0.37 -3.17 -0.73 -6.94 -0.73 -8.77 0 -12.54 -0.97 -12.54 -3.17 0 -1.34 2.07 -1.70 8.52 -1.70 4.87 0 8.52 0.49 8.52 1.22 0 0.73 1.46 1.22 3.41 1.22 l3.29 0 7.79 49.32 c4.26 27.03 7.43 50.05 7.06 51.15 -0.49 1.10 -2.31 1.83 -5.11 1.83 -3.41 0 -4.26 -0.49 -4.26 -2.44z"/>
  <path d="M382.38 597.93 c0 -2.31 0.85 -2.44 13.15 -2.44 14.49 0 18.51 0.73 18.51 3.17 0 1.34 -3.17 1.70 -15.83 1.70 -14.98 0 -15.83 -0.12 -15.83 -2.44z"/>
  <path d="M355.83 549.58 c-6.82 -26.06 -12.42 -49.32 -12.42 -51.76 l0 -4.63 6.70 0 c5.85 0 6.70 0.24 6.70 2.44 0 2.07 -0.85 2.44 -4.75 2.44 l-4.63 0 3.90 14.98 c20.46 77.21 21.92 82.44 23.75 82.93 0.97 0.24 -0.12 0.49 -2.44 0.61 l-4.26 0.12 -12.54 -47.13z"/>
  <path d="M526.08 583.31 c0 -1.70 3.90 -3.41 9.62 -4.38 4.51 -0.73 4.99 -0.49 4.99 1.58 0 1.83 -1.10 2.68 -3.78 3.29 -5.60 1.10 -10.84 0.85 -10.84 -0.49z"/>
  <path d="M524.98 552.38 c-0.73 -0.97 -2.68 -11.20 -4.14 -22.77 l-2.80 -21.19 -3.53 -0.37 c-8.65 -0.73 -11.57 -1.58 -11.57 -3.53 0 -1.58 1.46 -1.83 9.01 -1.34 4.99 0.24 9.38 0.73 9.74 0.97 0.37 0.37 1.70 9.74 3.17 20.70 2.80 21.92 3.29 24.36 4.99 24.36 0.61 0 1.10 1.10 1.10 2.44 0 2.92 -3.78 3.29 -5.97 0.73z"/>
  <path d="M532.17 551.65 c0 -1.34 0.85 -2.44 1.83 -2.44 0.97 0 1.83 -0.85 1.83 -1.83 0 -0.97 1.10 -1.83 2.44 -1.83 3.17 0 3.29 3.78 0.24 6.45 -3.17 2.80 -6.33 2.68 -6.33 -0.37z"/>
  <path d="M620.58 551.53 c-3.17 -2.44 -3.17 -2.56 -3.17 -20.09 l0 -17.54 -3.29 0 c-5.36 0 -8.89 -1.34 -8.89 -3.29 0 -1.34 1.70 -1.58 8.28 -1.34 l8.16 0.37 0.37 19 c0.24 18.39 0.37 19.12 2.92 19.73 2.92 0.85 5.85 -0.97 5.85 -3.53 0 -0.97 1.10 -1.70 2.44 -1.70 1.83 0 2.44 0.85 2.44 3.04 0 7.06 -8.89 10.23 -15.10 5.36z"/>
  <path d="M715.08 552.14 c-3.29 -2.31 -3.65 -6.58 -0.37 -6.58 1.22 0 2.92 0.85 3.78 1.83 4.02 4.87 6.70 1.10 7.79 -10.96 0.49 -4.63 1.10 -11.08 1.46 -14.25 l0.73 -5.85 5.36 0 c4.51 0 5.36 0.37 5.36 2.44 0 1.83 -0.85 2.44 -3.41 2.44 l-3.53 0 -1.34 14.74 c-0.73 8.16 -1.95 15.47 -2.80 16.44 -1.83 2.31 -9.62 2.19 -13.03 -0.24z"/>
  <path d="M534.24 527.05 c-2.80 -23.02 -2.92 -21.68 2.19 -21.68 2.92 0 4.26 0.61 4.26 1.83 0 0.97 -0.85 1.83 -1.83 1.83 -2.31 0 -2.31 2.07 0 17.66 2.31 16.20 2.31 17.66 -0.37 17.66 -1.95 0 -2.44 -2.19 -4.26 -17.29z"/>
  <path d="M713.13 530.34 l0.85 -10.35 -3.53 0 c-5.36 0 -9.01 -1.34 -9.01 -3.17 0 -1.22 1.83 -1.70 7.06 -1.70 10.35 0 10.35 0.12 9.38 13.88 -0.85 10.47 -1.10 11.69 -3.29 11.69 -2.19 0 -2.31 -0.61 -1.46 -10.35z"/>
  <path d="M871.68 528.88 c-1.22 -0.24 -2.19 -1.34 -2.19 -2.31 0 -1.34 1.83 -1.70 7.31 -1.70 6.45 0 7.31 0.24 7.31 2.44 0 2.07 -0.73 2.44 -5.11 2.31 -2.92 -0.12 -6.21 -0.37 -7.31 -0.73z"/>
  <path d="M848.54 527.66 c-1.22 -0.24 -2.19 -1.34 -2.19 -2.31 0 -1.34 1.95 -1.70 8.52 -1.70 7.67 0 8.52 0.24 8.52 2.44 0 2.19 -0.73 2.44 -6.33 2.31 -3.53 -0.12 -7.43 -0.37 -8.52 -0.73z"/>
  <path d="M785.22 524.01 c-1.22 -0.24 -2.19 -1.34 -2.19 -2.31 0 -1.34 1.95 -1.70 8.52 -1.70 7.67 0 8.52 0.24 8.52 2.44 0 2.19 -0.73 2.44 -6.33 2.31 -3.53 -0.12 -7.43 -0.37 -8.52 -0.73z"/>
  <path d="M764.52 522.79 c-1.22 -0.24 -2.19 -1.34 -2.19 -2.31 0 -1.34 2.07 -1.70 9.13 -1.70 8.28 0 9.13 0.24 9.13 2.44 0 2.19 -0.73 2.44 -6.94 2.31 -3.90 -0.12 -8.04 -0.37 -9.13 -0.73z"/>
  <path d="M745.03 521.57 c-1.22 -0.24 -2.19 -1.34 -2.19 -2.31 0 -1.34 1.95 -1.70 8.52 -1.70 7.67 0 8.52 0.24 8.52 2.44 0 2.19 -0.73 2.44 -6.33 2.31 -3.53 -0.12 -7.43 -0.37 -8.52 -0.73z"/>
  <path d="M684.15 517.92 c-1.22 -0.24 -2.19 -1.34 -2.19 -2.31 0 -1.34 1.95 -1.70 8.52 -1.70 7.67 0 8.52 0.24 8.52 2.44 0 2.19 -0.73 2.44 -6.33 2.31 -3.53 -0.12 -7.43 -0.37 -8.52 -0.73z"/>
  <path d="M663.44 516.70 c-1.22 -0.24 -2.19 -1.34 -2.19 -2.31 0 -1.34 1.83 -1.70 7.92 -1.70 7.06 0 7.92 0.24 7.92 2.44 0 2.07 -0.73 2.44 -5.72 2.31 -3.29 -0.12 -6.82 -0.37 -7.92 -0.73z"/>
  <path d="M645.18 515.48 c-1.22 -0.24 -2.19 -1.34 -2.19 -2.31 0 -1.34 1.83 -1.70 7.31 -1.70 6.45 0 7.31 0.24 7.31 2.44 0 2.07 -0.73 2.44 -5.11 2.31 -2.92 -0.12 -6.21 -0.37 -7.31 -0.73z"/>
  <path d="M926.73 514.51 c0 -1.95 -2.19 -6.33 -4.26 -8.52 -2.19 -2.19 -7.92 -4.26 -12.18 -4.26 -3.41 0 -4.26 -0.49 -4.26 -2.44 0 -5.60 17.29 -1.34 22.29 5.48 1.22 1.70 2.56 4.99 2.92 7.31 0.61 3.78 0.37 4.26 -1.95 4.26 -1.46 0 -2.56 -0.73 -2.56 -1.83z"/>
  <path d="M586.72 511.83 c-1.22 -0.24 -2.19 -1.34 -2.19 -2.31 0 -1.34 1.95 -1.70 8.52 -1.70 7.67 0 8.52 0.24 8.52 2.44 0 2.19 -0.73 2.44 -6.33 2.31 -3.53 -0.12 -7.43 -0.37 -8.52 -0.73z"/>
  <path d="M566.02 510.61 c-1.22 -0.24 -2.19 -1.34 -2.19 -2.31 0 -1.34 1.95 -1.70 8.52 -1.70 7.67 0 8.52 0.24 8.52 2.44 0 2.19 -0.73 2.44 -6.33 2.31 -3.53 -0.12 -7.43 -0.37 -8.52 -0.73z"/>
  <path d="M546.54 509.39 c-1.22 -0.24 -2.19 -1.34 -2.19 -2.31 0 -1.34 1.95 -1.70 8.52 -1.70 7.67 0 8.52 0.24 8.52 2.44 0 2.19 -0.73 2.44 -6.33 2.31 -3.53 -0.12 -7.43 -0.37 -8.52 -0.73z"/>
  <path d="M486.87 505.74 c-1.22 -0.24 -2.19 -1.34 -2.19 -2.31 0 -1.34 1.83 -1.70 7.92 -1.70 7.06 0 7.92 0.24 7.92 2.44 0 2.07 -0.73 2.44 -5.72 2.31 -3.29 -0.12 -6.82 -0.37 -7.92 -0.73z"/>
  <path d="M466.16 504.52 c-1.22 -0.24 -2.19 -1.34 -2.19 -2.31 0 -1.34 2.07 -1.70 9.13 -1.70 8.28 0 9.13 0.24 9.13 2.44 0 2.19 -0.73 2.44 -6.94 2.31 -3.90 -0.12 -8.04 -0.37 -9.13 -0.73z"/>
  <path d="M446.68 503.31 c-1.22 -0.24 -2.19 -1.34 -2.19 -2.31 0 -1.34 1.83 -1.70 7.92 -1.70 7.06 0 7.92 0.24 7.92 2.44 0 2.07 -0.73 2.44 -5.72 2.31 -3.29 -0.12 -6.82 -0.37 -7.92 -0.73z"/>
  <path d="M383.36 499.65 c-1.22 -0.24 -2.19 -1.34 -2.19 -2.31 0 -1.34 1.95 -1.70 8.52 -1.70 7.67 0 8.52 0.24 8.52 2.44 0 2.19 -0.73 2.44 -6.33 2.31 -3.53 -0.12 -7.43 -0.37 -8.52 -0.73z"/>
  <path d="M874.12 499.65 c-8.52 -0.37 -9.50 -0.73 -9.50 -2.80 0 -2.31 0.73 -2.44 14.98 -1.83 19 0.85 22.77 1.46 22.77 3.65 0 1.95 -3.65 1.95 -28.25 0.97z"/>
  <path d="M363.87 498.43 c-1.22 -0.24 -2.19 -1.34 -2.19 -2.31 0 -1.34 1.83 -1.70 7.92 -1.70 7.06 0 7.92 0.24 7.92 2.44 0 2.07 -0.73 2.44 -5.72 2.31 -3.29 -0.12 -6.82 -0.37 -7.92 -0.73z"/>
  <path d="M843.92 495.63 c0 -1.95 0.85 -2.44 4.02 -2.44 5.72 0 9.38 1.22 9.38 3.17 0 1.22 -1.83 1.70 -6.70 1.70 -5.85 0 -6.70 -0.24 -6.70 -2.44z"/>
  <path d="M823.21 494.42 c0 -1.95 0.85 -2.44 4.02 -2.44 5.72 0 9.38 1.22 9.38 3.17 0 1.22 -1.83 1.70 -6.70 1.70 -5.85 0 -6.70 -0.24 -6.70 -2.44z"/>
  <path d="M802.51 493.20 c0 -1.83 0.85 -2.44 3.41 -2.44 5.11 0 8.77 1.34 8.77 3.17 0 1.22 -1.70 1.70 -6.09 1.70 -5.24 0 -6.09 -0.37 -6.09 -2.44z"/>
  <path d="M783.03 491.98 c0 -1.95 0.85 -2.44 4.02 -2.44 5.72 0 9.38 1.22 9.38 3.17 0 1.22 -1.83 1.70 -6.70 1.70 -5.85 0 -6.70 -0.24 -6.70 -2.44z"/>
  <path d="M763.54 490.76 c0 -1.83 0.85 -2.44 3.41 -2.44 5.11 0 8.77 1.34 8.77 3.17 0 1.22 -1.70 1.70 -6.09 1.70 -5.24 0 -6.09 -0.37 -6.09 -2.44z"/>
  <path d="M744.06 489.54 c0 -1.95 0.85 -2.44 4.02 -2.44 5.72 0 9.38 1.22 9.38 3.17 0 1.22 -1.83 1.70 -6.70 1.70 -5.85 0 -6.70 -0.24 -6.70 -2.44z"/>
  <path d="M718.49 488.33 c0 -2.19 0.73 -2.44 8.28 -2.31 10.23 0.12 13.64 0.85 13.64 3.04 0 1.34 -2.44 1.70 -10.96 1.70 -10.23 0 -10.96 -0.12 -10.96 -2.44z"/>
  <path d="M699 487.11 c0 -1.95 0.85 -2.44 4.02 -2.44 5.72 0 9.38 1.22 9.38 3.17 0 1.22 -1.83 1.70 -6.70 1.70 -5.85 0 -6.70 -0.24 -6.70 -2.44z"/>
  <path d="M681.95 485.89 c0 -1.95 0.85 -2.44 4.02 -2.44 5.72 0 9.38 1.22 9.38 3.17 0 1.22 -1.83 1.70 -6.70 1.70 -5.85 0 -6.70 -0.24 -6.70 -2.44z"/>
  <path d="M658.82 484.67 c0 -1.95 0.85 -2.44 4.02 -2.44 5.72 0 9.38 1.22 9.38 3.17 0 1.22 -1.83 1.70 -6.70 1.70 -5.85 0 -6.70 -0.24 -6.70 -2.44z"/>
  <path d="M636.90 483.46 c0 -1.95 0.85 -2.44 4.02 -2.44 5.72 0 9.38 1.22 9.38 3.17 0 1.22 -1.83 1.70 -6.70 1.70 -5.85 0 -6.70 -0.24 -6.70 -2.44z"/>
  <path d="M617.41 482.24 c0 -1.95 0.85 -2.44 4.63 -2.44 6.33 0 9.99 1.22 9.99 3.17 0 1.22 -1.95 1.70 -7.31 1.70 -6.45 0 -7.31 -0.24 -7.31 -2.44z"/>
  <path d="M597.93 481.02 c0 -1.95 0.85 -2.44 4.02 -2.44 5.72 0 9.38 1.22 9.38 3.17 0 1.22 -1.83 1.70 -6.70 1.70 -5.85 0 -6.70 -0.24 -6.70 -2.44z"/>
  <path d="M579.66 479.80 c0 -1.95 0.85 -2.44 4.02 -2.44 5.72 0 9.38 1.22 9.38 3.17 0 1.22 -1.83 1.70 -6.70 1.70 -5.85 0 -6.70 -0.24 -6.70 -2.44z"/>
  <path d="M558.96 478.58 c0 -1.83 0.85 -2.44 3.41 -2.44 5.11 0 8.77 1.34 8.77 3.17 0 1.22 -1.70 1.70 -6.09 1.70 -5.24 0 -6.09 -0.37 -6.09 -2.44z"/>
  <path d="M541.91 477.37 c0 -1.83 0.85 -2.44 3.41 -2.44 5.11 0 8.77 1.34 8.77 3.17 0 1.22 -1.70 1.70 -6.09 1.70 -5.24 0 -6.09 -0.37 -6.09 -2.44z"/>
  <path d="M516.34 476.15 c0 -2.19 0.85 -2.44 8.89 -2.44 10.35 0 14.25 0.85 14.25 3.17 0 1.34 -2.56 1.70 -11.57 1.70 -10.72 0 -11.57 -0.12 -11.57 -2.44z"/>
  <path d="M452.40 474.32 c-94.13 -5.72 -91.94 -5.60 -91.94 -8.28 0 -2.31 0.61 -2.44 9.50 -1.70 5.11 0.49 38.12 2.44 73.31 4.51 35.19 2.07 65.76 4.02 67.95 4.38 2.31 0.37 3.90 1.34 3.90 2.31 0 2.31 -6.58 2.19 -62.72 -1.22z"/>
  <path d="M762.33 361.80 c-2.80 -0.49 -4.14 -1.46 -3.90 -2.56 0.97 -4.99 9.01 -19.48 13.52 -24.60 4.99 -5.60 4.99 -5.72 4.99 -15.22 0 -11.08 0.85 -14.98 3.17 -14.98 1.34 0 1.70 2.92 1.70 14 l0 14 -3.04 0 c-2.56 0 -3.04 0.61 -3.04 3.65 0 1.95 -0.73 4.02 -1.58 4.51 -1.46 0.85 -9.38 14.98 -9.38 16.68 0 0.37 0.73 0.73 1.58 0.73 0.73 0 3.29 -3.29 5.48 -7.31 2.19 -4.02 4.51 -7.31 5.11 -7.31 0.73 0 1.22 -0.73 1.22 -1.58 0 -3.17 4.38 -5.72 9.62 -5.72 2.80 0 13.88 1.95 24.60 4.26 22.65 4.99 24.72 5.11 30.08 1.83 2.19 -1.34 4.75 -2.44 5.72 -2.44 0.97 0 1.83 -0.73 1.83 -1.58 0 -2.68 5.48 -6.94 8.89 -6.94 2.68 0 3.29 -0.61 3.29 -2.80 0 -3.53 4.75 -8.16 8.28 -8.16 1.83 0 2.68 -0.73 2.68 -2.19 0 -2.80 8.52 -11.20 11.33 -11.20 1.10 0 2.07 -0.61 2.07 -1.46 0 -2.56 6.45 -8.28 9.38 -8.28 1.95 0 2.80 -0.73 2.80 -2.19 0 -3.04 3.78 -6.33 7.06 -6.33 1.83 0 2.68 -0.73 2.68 -2.19 0 -3.04 3.78 -6.33 7.06 -6.33 1.70 0 2.68 -0.73 2.68 -1.95 0 -1.10 2.19 -4.38 4.87 -7.31 4.75 -5.24 4.87 -5.48 3.04 -8.77 -3.41 -6.09 -4.87 -8.04 -8.16 -10.96 -1.95 -1.58 -3.41 -3.41 -3.41 -4.14 0 -0.73 -1.34 -2.31 -3.04 -3.65 -1.70 -1.34 -3.04 -3.41 -3.04 -4.75 0 -1.22 -0.73 -2.31 -1.58 -2.31 -2.19 0 -5.72 -3.90 -5.72 -6.21 0 -0.97 -1.22 -2.31 -2.68 -2.92 -1.58 -0.73 -2.92 -2.31 -3.17 -3.65 -0.24 -1.34 -1.46 -3.04 -2.92 -3.65 -1.46 -0.73 -3.17 -2.31 -3.90 -3.65 -0.73 -1.34 -2.31 -3.17 -3.41 -4.02 -1.22 -0.85 -2.19 -3.17 -2.19 -5.24 0 -2.92 -0.49 -3.53 -3.17 -3.53 -1.70 0 -4.14 -0.61 -5.48 -1.22 -2.80 -1.58 -8.77 1.22 -12.42 5.85 -1.22 1.46 -3.53 2.68 -5.24 2.68 -2.07 0 -2.92 0.73 -2.92 2.19 0 3.04 -4.99 7.55 -8.28 7.55 -1.83 0 -2.68 0.73 -2.68 2.19 0 3.29 -5.11 7.55 -8.89 7.55 -2.68 0 -3.29 0.61 -3.29 2.80 0 3.53 -5.97 9.38 -9.50 9.38 -1.83 0 -2.68 0.73 -2.68 2.19 0 3.29 -5.11 7.55 -8.89 7.55 -2.68 0 -3.29 0.61 -3.29 2.80 0 3.53 -4.75 8.16 -8.28 8.16 -1.83 0 -2.68 0.73 -2.68 2.19 0 1.22 -1.95 4.14 -4.38 6.45 -5.36 5.11 -7.79 9.62 -7.79 14.49 0 2.92 -0.49 3.65 -2.56 3.65 -2.44 0 -2.56 -0.49 -1.95 -6.58 0.37 -3.65 1.58 -7.92 2.68 -9.62 2.07 -3.29 74.77 -68.93 81.83 -73.92 3.17 -2.19 5.72 -3.04 9.86 -2.92 4.99 0.12 6.09 0.73 11.69 6.70 13.15 14 44.08 51.39 46.03 55.77 3.90 8.40 2.07 11.20 -18.88 29.71 -10.23 9.01 -28.62 25.45 -41.04 36.65 -12.42 11.08 -24.23 21.07 -26.30 22.04 -5.72 2.68 -11.08 2.31 -35.19 -3.04 l-21.92 -4.75 -3.17 3.04 c-1.70 1.70 -5.36 6.82 -7.92 11.45 -4.99 8.89 -5.11 9.01 -13.88 7.43z"/>
  <path d="M795.57 325.88 c-2.31 -2.44 -2.80 -4.26 -2.80 -10.96 0 -7.18 0.24 -8.04 2.44 -8.04 1.58 0 2.44 -0.85 2.44 -2.44 0 -2.19 0.85 -2.44 8.52 -2.44 6.82 0 8.52 0.37 8.52 1.83 0 0.97 0.73 1.83 1.70 1.83 0.97 0 2.07 0.85 2.44 1.95 1.22 3.17 0.85 15.10 -0.49 15.10 -0.61 0 -1.22 0.85 -1.22 1.83 0 0.97 -1.10 1.83 -2.44 1.83 -1.34 0 -2.44 0.61 -2.44 1.22 0 0.73 -3.17 1.22 -6.94 1.22 -5.85 0 -7.55 -0.61 -9.74 -2.92z m16.56 -3.53 c2.80 -2.31 3.78 -6.58 2.44 -10.59 -2.44 -6.70 -9.99 -8.28 -15.10 -3.04 -3.29 3.17 -3.78 6.21 -1.70 10.84 2.44 5.11 9.50 6.58 14.37 2.80z"/>
  <path d="M851.83 301.28 c-2.68 -0.97 -6.82 -3.65 -9.13 -5.97 -3.04 -3.04 -5.48 -4.26 -8.16 -4.26 -5.11 0 -6.58 -2.31 -6.45 -9.99 0 -3.53 -0.37 -10.84 -0.73 -16.20 -0.85 -11.45 0.61 -18.39 5.11 -23.75 4.75 -5.48 9.13 -7.31 17.90 -7.31 10.47 0 14.25 2.80 14.25 10.35 l0 5.24 -5.72 0.85 c-4.14 0.61 -6.82 1.95 -9.74 4.87 -5.36 5.36 -5.11 7.43 0.37 3.65 5.97 -4.02 10.72 -3.90 15.22 0.24 2.80 2.68 3.53 4.38 3.53 8.52 0 4.14 -0.49 5.24 -2.19 5.24 -1.10 0 -4.26 1.46 -6.82 3.29 l-4.75 3.17 3.29 2.92 c4.75 4.02 14.86 4.14 20.34 0.24 1.83 -1.22 5.24 -2.31 7.67 -2.31 4.02 0 4.38 0.24 4.38 3.65 0 7.67 -6.58 15.95 -14.61 18.27 -6.09 1.70 -18.02 1.34 -23.75 -0.73z"/>
 </g>
 <g fill="#1165a7">
  <path d="M458.61 1041.07 c-36.65 -12.66 -46.88 -60.28 -18.75 -87.56 2.68 -2.68 5.48 -4.87 6.09 -4.87 0.61 0 0.73 -0.49 0.37 -1.22 -0.37 -0.73 -6.21 -1.22 -13.27 -1.22 -19.61 0 -33.73 -5.36 -46.15 -17.78 -12.30 -12.18 -18.27 -27.64 -18.14 -46.76 0.12 -20.46 7.67 -36.65 22.77 -49.08 l7.43 -6.09 -8.16 -30.57 c-4.51 -16.81 -13.40 -50.29 -19.97 -74.41 -6.45 -24.11 -15.22 -56.99 -19.48 -73.07 -4.26 -16.07 -11.93 -44.57 -16.93 -63.32 -9.38 -34.46 -31.05 -115.93 -37.26 -139.44 -6.82 -26.06 -9.62 -28.74 -34.46 -33 -4.51 -0.73 -8.04 -1.70 -7.79 -2.19 5.36 -9.74 6.82 -20.09 4.14 -27.89 l-1.83 -5.11 3.90 0.61 c2.07 0.37 8.89 1.46 15.22 2.44 18.75 3.17 29.59 8.65 38.36 19.24 6.82 8.40 10.23 16.44 16.32 40.06 l5.85 22.29 6.70 0.85 c11.33 1.46 102.78 7.31 188.02 11.93 12.06 0.61 43.84 2.56 70.63 4.14 26.79 1.70 53.95 3.41 60.28 3.78 6.33 0.37 24.96 1.46 41.40 2.44 16.44 0.97 39.46 2.31 51.15 3.04 11.69 0.61 44.08 2.56 71.85 4.26 27.77 1.70 59.79 3.53 71 4.26 22.04 1.34 25.70 2.31 29.96 8.28 4.38 6.21 4.26 11.45 -0.37 33.12 -2.31 11.08 -8.65 40.92 -14.13 66.37 -5.36 25.45 -11.69 54.80 -14 65.15 -2.31 10.35 -6.70 30.69 -9.74 45.06 -13.88 65.39 -16.81 73.68 -31.54 88.41 -8.28 8.28 -16.20 13.40 -26.67 17.05 -6.33 2.31 -19.24 3.65 -60.52 6.58 -55.41 4.02 -167.20 12.18 -258.17 18.88 -22.41 1.70 -49.56 3.65 -60.28 4.26 -10.72 0.73 -22.41 1.95 -25.94 2.56 -8.52 1.70 -15.71 7.31 -20.09 15.71 -3.17 5.97 -3.41 7.67 -3.04 16.07 0.37 8.04 0.85 9.99 4.02 14.49 2.07 2.92 6.09 6.94 9.01 9.01 l5.24 3.65 210.31 0.61 c200.08 0.61 210.43 0.73 213.60 2.80 10.59 6.94 10.84 22.65 0.49 28.86 -3.41 2.19 -6.21 2.44 -22.41 2.44 -10.23 0 -18.63 0.24 -18.63 0.61 0 0.37 2.92 3.53 6.45 7.06 11.33 11.45 16.20 25.45 15.10 43.23 -0.49 8.04 -1.34 11.69 -4.38 17.78 -11.33 23.02 -37.14 33.98 -61.98 26.43 -14 -4.14 -25.09 -14.13 -31.78 -28.13 -2.80 -6.09 -3.17 -8.16 -3.17 -21.31 0 -14 0.12 -14.98 3.90 -22.65 2.56 -5.11 6.45 -10.35 11.33 -14.98 4.02 -3.78 7.31 -7.18 7.31 -7.55 0 -0.24 -54.80 -0.49 -121.78 -0.49 -66.98 0 -121.78 0.24 -121.78 0.49 0 0.37 3.17 3.78 7.06 7.67 16.07 16.07 20.22 38.85 10.72 59.55 -4.26 9.38 -9.26 15.34 -17.41 20.70 -13.64 9.01 -31.30 11.45 -45.91 6.45z m23.26 -29.23 c8.04 -3.04 14 -11.69 14 -20.58 0 -22.65 -31.05 -28.50 -39.94 -7.67 -7.06 16.44 9.50 34.46 25.94 28.25z m301.89 -0.97 c9.13 -4.14 14.61 -15.34 12.18 -24.96 -1.10 -4.38 -7.79 -11.69 -12.54 -13.64 -13.40 -5.60 -28.50 4.26 -28.62 18.75 -0.12 16.20 14.74 26.30 28.98 19.85z m-332.09 -194.97 c9.01 -0.73 16.56 -1.46 16.81 -1.70 0.37 -0.37 -11.08 -73.80 -12.42 -79.52 -0.61 -2.56 -0.85 -2.56 -22.77 -1.95 -12.30 0.37 -22.53 0.85 -22.77 1.10 -0.49 0.37 20.34 80.49 21.43 82.44 0.61 1.10 0.12 1.10 19.73 -0.37z m71.12 -4.99 l22.77 -1.58 0 -3.65 c0 -2.07 -0.85 -10.59 -1.83 -19 -2.68 -22.53 -2.44 -27.52 1.10 -29.84 1.83 -1.22 4.02 -1.70 5.97 -1.22 6.33 1.58 7.18 4.02 9.86 28.37 l2.56 22.77 3.29 0.37 c3.90 0.49 53.58 -3.17 54.31 -4.02 0.37 -0.37 0.49 -6.82 0.37 -14.49 -0.24 -16.20 0.49 -17.78 8.89 -17.78 7.79 0 8.52 1.58 9.13 17.90 0.37 12.18 0.61 13.76 2.44 13.27 1.10 -0.24 13.88 -1.22 28.37 -2.07 14.61 -0.85 26.91 -1.83 27.64 -2.19 0.61 -0.37 1.83 -9.38 2.80 -19.85 1.95 -20.58 2.80 -23.14 9.13 -24.72 3.78 -0.85 8.65 1.95 9.50 5.85 0.37 1.46 -0.12 10.35 -1.10 19.73 -0.97 9.38 -1.58 17.17 -1.34 17.41 0.49 0.49 57.97 -3.41 60.04 -4.02 0.73 -0.24 1.46 -2.31 1.46 -4.51 0 -2.19 1.70 -16.32 3.65 -31.42 1.95 -15.10 3.65 -28.62 3.65 -30.20 l0 -2.80 -22.41 0.85 c-21.68 0.85 -22.41 0.73 -24.96 -1.83 -3.17 -3.17 -3.41 -9.01 -0.37 -12.06 1.95 -1.95 5.24 -2.44 25.82 -3.04 12.91 -0.49 23.87 -1.10 24.11 -1.46 0.49 -0.49 11.08 -79.16 11.20 -83.05 0 -1.10 -2.31 -1.58 -7.31 -1.58 -6.21 0 -7.92 -0.49 -10.35 -3.04 -3.53 -3.41 -3.90 -7.43 -1.10 -11.33 1.58 -2.31 2.92 -2.68 11.20 -2.68 l9.38 0 4.99 -38.60 c2.80 -21.31 4.63 -39.09 4.26 -39.58 -0.61 -0.73 -76.96 -5.85 -77.82 -5.24 -0.12 0.12 -0.85 6.45 -1.58 14.13 -0.73 7.67 -2.07 15.10 -3.04 16.68 -2.31 3.53 -7.92 3.53 -12.18 -0.24 l-3.41 -2.80 1.34 -13.88 c1.58 -15.59 1.58 -15.59 -6.33 -15.71 -2.68 0 -17.41 -0.85 -32.88 -1.83 -15.34 -0.97 -30.32 -1.83 -33.12 -1.83 l-5.24 0 0 15.59 c0 18.51 -1.10 21.43 -7.55 21.92 -2.56 0.24 -5.60 -0.24 -7.06 -0.97 -2.31 -1.22 -2.44 -2.44 -2.44 -19.61 0 -13.52 -0.37 -18.39 -1.46 -18.75 -2.44 -0.73 -80.01 -4.75 -80.49 -4.14 -0.37 0.24 0.49 8.16 1.70 17.54 2.80 21.55 2.80 22.04 -0.12 24.96 -4.26 4.26 -14.61 2.31 -14.61 -2.80 0 -3.29 -4.99 -40.43 -5.60 -40.92 -1.58 -1.58 -80.86 -5.72 -80.86 -4.26 0 0.61 0.85 6.33 1.95 12.66 2.07 13.27 12.66 80.74 12.66 81.23 0 0.24 4.02 0.37 8.89 0.37 10.23 0 13.40 2.07 13.40 8.52 0 6.21 -3.29 8.52 -12.18 8.52 -6.94 0 -7.79 0.24 -7.18 2.19 0.61 1.83 6.94 40.92 13.64 83.78 l2.07 13.64 23.26 -0.73 c22.65 -0.49 23.38 -0.49 25.57 2.07 3.29 3.65 3.04 9.62 -0.37 12.54 -2.19 1.70 -4.87 2.19 -11.69 2.19 -4.75 0 -14.49 0.37 -21.55 0.73 l-12.79 0.85 0.97 4.99 c0.61 2.80 3.53 21.07 6.70 40.80 l5.72 35.80 6.82 -0.73 c3.78 -0.37 17.05 -1.34 29.71 -2.19z m300.30 -24.23 c6.94 -3.04 16.07 -12.06 18.88 -18.63 1.58 -3.90 10.47 -41.65 10.47 -44.69 0 -0.85 -8.04 -1.22 -24.60 -0.97 l-24.60 0.37 -3.17 26.18 c-1.83 14.37 -3.65 29.71 -4.14 33.98 l-0.85 7.79 10.84 -0.73 c7.18 -0.49 13.03 -1.58 17.17 -3.29z m-370.69 -72.09 c0.37 -0.37 -0.97 -10.96 -2.92 -23.62 -2.07 -12.66 -5.60 -34.71 -7.92 -49.08 -2.31 -14.25 -4.63 -26.43 -5.24 -26.91 -0.73 -0.85 -58.82 -2.44 -58.82 -1.70 0 0.97 26.18 99 27.28 102.17 0.49 1.22 46.40 0.49 47.61 -0.85z m398.58 -10.23 c3.41 -0.37 6.33 -0.85 6.33 -1.10 0 -0.85 8.77 -42.13 12.91 -60.52 2.44 -10.72 4.14 -19.61 3.90 -19.85 -0.12 -0.24 -13.27 -0.61 -28.98 -0.73 l-28.62 -0.49 -1.95 14.61 c-4.87 35.44 -8.40 63.57 -8.40 66.49 l0 3.17 19.24 -0.49 c10.47 -0.24 22.04 -0.73 25.57 -1.10z m27.52 -101.20 c1.22 -4.02 15.34 -70.14 15.34 -71.61 0 -1.58 -4.63 -2.07 -45.06 -4.26 -10.96 -0.61 -20.22 -0.97 -20.34 -0.73 -0.85 0.85 -10.23 75.50 -9.62 76.96 0.49 1.34 6.21 1.70 29.84 1.70 26.79 0 29.23 -0.12 29.84 -2.07z m-444.61 -9.13 c-0.24 -1.58 -3.65 -22.77 -7.55 -47.25 l-6.94 -44.45 -6.09 -0.97 c-7.18 -1.10 -65.39 -4.51 -66.13 -3.78 -0.49 0.49 24.48 94.99 25.57 96.93 0.73 1.10 58.45 3.53 60.89 2.56 0.49 -0.12 0.49 -1.58 0.24 -3.04z"/>
  <path d="M610.71 747.10 c-14.25 -3.04 -21.68 -7.92 -12.18 -7.92 2.31 0 4.26 0.49 4.26 0.97 0 0.61 4.38 1.83 9.74 2.68 8.04 1.34 9.74 2.07 9.74 3.90 0 2.56 -1.46 2.56 -11.57 0.37z"/>
  <path d="M635.68 746.62 c0 -2.07 1.10 -2.44 7.92 -3.17 4.38 -0.49 7.92 -1.34 7.92 -1.95 0 -0.61 1.34 -1.10 3.04 -1.10 1.70 0 3.04 -0.49 3.04 -1.22 0 -0.61 1.70 -1.22 3.65 -1.22 2.44 0 3.65 -0.61 3.65 -1.83 0 -1.22 1.34 -1.83 4.26 -1.83 3.78 0 4.26 -0.37 4.26 -3.04 0 -2.68 0.49 -3.04 4.63 -3.04 l4.51 0.12 -4.26 3.65 c-9.01 7.79 -23.75 14.37 -36.78 16.20 -5.36 0.85 -5.85 0.61 -5.85 -1.58z"/>
  <path d="M580.39 733.10 c-4.38 -3.41 -8.04 -6.45 -8.04 -6.70 0 -0.37 1.95 -0.61 4.26 -0.61 2.92 0 4.26 0.61 4.26 1.83 0 0.97 1.10 1.83 2.44 1.83 1.34 0 2.44 0.85 2.44 1.83 0 0.97 1.10 1.83 2.44 1.83 1.83 0 2.44 0.85 2.44 3.04 0 1.70 -0.49 3.04 -1.10 3.04 -0.49 0 -4.63 -2.80 -9.13 -6.09z"/>
  <path d="M564.80 718.12 c-3.29 -4.02 -5.85 -7.67 -5.85 -8.28 0 -0.61 1.34 -1.10 3.04 -1.10 2.44 0 3.04 0.61 3.04 3.04 0 2.19 0.61 3.04 2.44 3.04 2.92 0 4.02 2.07 3.41 6.94 -0.37 3.41 -0.49 3.29 -6.09 -3.65z"/>
  <path d="M695.35 706.92 c0 -2.92 0.61 -4.26 1.83 -4.26 1.10 0 1.83 -1.10 1.83 -3.04 0 -1.95 0.73 -3.04 1.83 -3.04 1.22 0 1.83 -1.34 1.83 -4.26 0 -2.31 0.61 -4.26 1.22 -4.26 0.73 0 1.22 -1.58 1.22 -3.65 0 -2.80 0.49 -3.65 2.44 -3.65 1.46 0 2.44 0.85 2.44 1.95 0 4.87 -11.33 28.50 -13.64 28.50 -0.61 0 -0.97 -1.95 -0.97 -4.26z"/>
  <path d="M552.26 698.64 c-2.31 -4.99 -4.63 -10.72 -4.99 -12.79 -0.73 -3.41 -0.49 -3.90 1.83 -3.90 2.07 0 2.68 0.97 3.29 4.87 0.49 2.68 1.22 4.87 1.83 4.87 0.61 0 1.10 1.70 1.10 3.65 0 2.44 0.61 3.65 1.83 3.65 1.22 0 1.83 1.34 1.83 4.26 0 2.31 -0.49 4.26 -1.22 4.26 -0.61 0 -3.04 -4.02 -5.48 -8.89z"/>
  <path d="M545.20 675.62 c-0.97 -3.78 0.24 -8.28 2.31 -8.28 1.22 0 1.70 1.58 1.70 5.48 0 5.97 -2.80 7.79 -4.02 2.80z"/>
  <path d="M619.85 675.86 c0 -2.19 0.85 -2.44 7.92 -2.44 7.06 0 7.92 0.24 7.92 2.44 0 2.19 -0.85 2.44 -7.92 2.44 -7.06 0 -7.92 -0.24 -7.92 -2.44z"/>
  <path d="M594.03 675.50 c-6.82 -0.97 -8.28 -1.58 -8.28 -3.41 0 -2.68 -0.49 -2.68 9.62 -1.10 4.38 0.73 9.86 1.58 12.06 1.95 2.31 0.37 3.90 1.34 3.90 2.31 0 2.07 -4.51 2.19 -17.29 0.24z"/>
  <path d="M645.42 675.38 c0 -1.58 3.41 -3.17 7.06 -3.17 0.73 0 1.46 1.10 1.46 2.44 0 1.95 -0.85 2.44 -4.26 2.44 -2.80 0 -4.26 -0.61 -4.26 -1.70z"/>
  <path d="M655.16 674.16 c0 -1.22 2.44 -2.31 7.06 -3.17 3.78 -0.73 9.99 -2.19 13.76 -3.17 8.89 -2.19 9.62 -2.19 9.62 0.61 0 1.83 -2.07 2.68 -12.18 4.87 -14.49 3.04 -18.27 3.17 -18.27 0.85z"/>
  <path d="M574.79 671.11 c0 -0.49 -2.56 -1.34 -5.72 -1.70 -3.17 -0.37 -5.97 -1.22 -6.21 -1.95 -0.24 -0.73 -3.53 -1.34 -7.79 -1.34 -7.79 0 -9.26 -1.95 -3.04 -4.14 3.90 -1.46 31.30 6.09 31.30 8.65 0 0.97 -1.58 1.58 -4.26 1.58 -2.31 0 -4.26 -0.49 -4.26 -1.10z"/>
  <path d="M502.21 623.38 c-3.65 -4.14 -2.07 -18.14 2.19 -18.14 0.85 0 0.97 2.56 0.37 7.92 -0.73 7.43 -0.61 7.92 1.70 7.92 1.70 0 2.56 0.73 2.56 2.44 0 3.29 -3.78 3.17 -6.82 -0.12z"/>
  <path d="M510.49 622.65 c0.24 -2.68 1.10 -3.53 3.78 -3.78 3.90 -0.49 4.26 1.22 0.85 4.63 -3.41 3.41 -5.11 3.04 -4.63 -0.85z"/>
  <path d="M571.38 623.26 c-2.31 -2.31 -1.70 -3.41 2.19 -3.41 2.80 0 3.65 0.49 3.65 2.44 0 2.80 -3.53 3.29 -5.85 0.97z"/>
  <path d="M671.60 622.28 c-2.19 -2.44 -2.07 -2.44 2.19 -2.44 3.65 0 4.51 0.49 4.51 2.44 0 1.58 -0.85 2.44 -2.19 2.44 -1.34 0 -3.29 -1.10 -4.51 -2.44z"/>
  <path d="M680.74 619.97 c0 -2.07 0.61 -3.78 1.22 -3.78 0.73 0 1.22 -1.34 1.22 -2.92 0 -1.70 0.85 -3.78 1.83 -4.87 0.97 -0.97 1.83 -2.31 1.83 -3.04 0 -0.73 1.10 -1.34 2.44 -1.34 1.58 0 2.44 -0.85 2.44 -2.44 0 -1.34 0.85 -2.44 1.83 -2.44 0.97 0 1.83 -0.49 1.83 -1.22 0 -0.61 1.95 -1.22 4.26 -1.22 2.31 0 4.26 0.49 4.26 1.10 0 0.49 -2.68 2.68 -5.85 4.63 -4.75 2.92 -6.82 5.36 -10.11 11.93 -4.75 9.38 -7.18 11.33 -7.18 5.60z"/>
  <path d="M736.75 617.05 c0 -3.29 -7.31 -12.66 -12.18 -15.34 -5.97 -3.29 -6.21 -4.99 -0.61 -4.99 2.31 0 4.26 0.61 4.26 1.22 0 0.73 0.85 1.22 1.83 1.22 0.97 0 1.83 0.85 1.83 1.83 0 0.97 0.85 1.83 1.83 1.83 0.97 0 1.83 1.10 1.83 2.44 0 1.34 0.73 2.44 1.70 2.44 2.07 0 3.17 2.68 3.17 7.43 0 2.31 -0.61 3.53 -1.83 3.53 -0.97 0 -1.83 -0.73 -1.83 -1.58z"/>
  <path d="M566.87 613.76 c-2.44 -4.63 -2.31 -4.87 1.22 -4.87 2.68 0 3.04 0.49 3.04 4.26 0 5.24 -1.70 5.48 -4.26 0.61z"/>
  <path d="M580.39 612.30 c-0.37 -1.58 -0.73 -4.02 -0.73 -5.48 0 -1.70 -0.73 -2.80 -1.83 -2.80 -0.97 0 -1.83 -0.85 -1.83 -1.83 0 -0.97 -0.49 -1.83 -1.22 -1.83 -0.61 0 -1.22 -1.95 -1.22 -4.51 0 -4.26 0 -4.38 2.44 -2.19 2.92 2.68 9.74 15.95 9.74 19.12 0 3.29 -4.38 2.80 -5.36 -0.49z"/>
  <path d="M670.99 607.06 c1.46 -3.90 6.82 -12.42 8.52 -13.40 0.73 -0.49 1.22 0.85 1.22 3.53 0 3.04 -0.49 4.38 -1.83 4.38 -0.97 0 -1.83 1.10 -1.83 2.31 0 4.14 -1.46 6.21 -4.38 6.21 -2.56 0 -2.68 -0.37 -1.70 -3.04z"/>
  <path d="M524.86 601.58 c0 -3.41 0.37 -3.65 4.26 -3.65 2.92 0 4.26 -0.61 4.26 -1.83 0 -1.22 1.34 -1.83 4.26 -1.83 5.60 0 5.72 3.17 0.37 4.26 -2.19 0.49 -6.09 2.19 -8.52 3.78 l-4.63 2.92 0 -3.65z"/>
  <path d="M557.74 602.80 c-1.70 -1.22 -5.36 -2.92 -8.16 -3.78 -3.17 -0.85 -5.24 -2.07 -5.24 -3.29 0 -1.46 1.22 -1.70 5.72 -1.10 3.17 0.37 5.97 1.22 6.21 1.95 0.24 0.73 1.46 1.34 2.80 1.34 1.70 0 2.31 0.85 2.31 3.65 0 4.26 0.24 4.26 -3.65 1.22z"/>
  <path d="M745.28 603.53 c0 -0.97 -0.61 -1.95 -1.34 -2.19 -0.73 -0.24 -1.10 -2.31 -0.85 -4.63 l0.37 -4.26 4.02 5.36 c4.75 6.45 4.87 7.43 0.85 7.43 -1.83 0 -3.04 -0.73 -3.04 -1.70z"/>
  <path d="M504.16 602.92 c0 -0.73 1.34 -2.80 3.04 -4.63 l2.92 -3.41 0.12 4.63 c0 4.02 -0.37 4.51 -3.04 4.51 -1.70 0 -3.04 -0.49 -3.04 -1.10z"/>
  <path d="M512.20 591.72 c1.34 -2.31 15.34 -10.84 17.78 -10.84 3.29 0 2.68 4.26 -0.85 5.85 -1.70 0.85 -4.51 1.46 -6.09 1.46 -2.19 0 -3.04 0.61 -3.04 2.44 0 1.95 -0.85 2.44 -4.38 2.44 -2.80 0 -4.02 -0.49 -3.41 -1.34z"/>
  <path d="M685.97 587.58 c4.38 -3.90 5.72 -3.78 5.72 0 0 2.68 -0.49 3.04 -4.51 3.04 l-4.63 -0.12 3.41 -2.92z"/>
  <path d="M731.88 588.79 c0 -1.10 -1.10 -1.83 -3.04 -1.83 -2.44 0 -3.04 -0.61 -3.04 -3.04 0 -3.41 1.34 -3.17 8.77 1.34 6.33 4.02 6.70 5.36 1.70 5.36 -3.04 0 -4.38 -0.49 -4.38 -1.83z"/>
  <path d="M533.38 581.61 c0 -1.58 3.41 -3.17 7.06 -3.17 0.73 0 1.46 1.10 1.46 2.44 0 1.95 -0.85 2.44 -4.26 2.44 -2.80 0 -4.26 -0.61 -4.26 -1.70z"/>
  <path d="M544.34 580.88 c0 -2.56 1.22 -2.92 5.85 -1.70 4.38 1.22 3.29 4.14 -1.58 4.14 -3.41 0 -4.26 -0.49 -4.26 -2.44z"/>
  <path d="M702.66 581.61 c0 -1.58 3.41 -3.17 7.06 -3.17 0.73 0 1.46 1.10 1.46 2.44 0 1.95 -0.85 2.44 -4.26 2.44 -2.80 0 -4.26 -0.61 -4.26 -1.70z"/>
  <path d="M713.62 580.88 c0 -2.56 1.22 -2.92 5.85 -1.70 4.38 1.22 3.29 4.14 -1.58 4.14 -3.41 0 -4.26 -0.49 -4.26 -2.44z"/>
  <path d="M764.40 361.68 c-2.44 -0.49 -4.87 -1.22 -5.24 -1.58 -1.34 -1.34 7.43 -18.39 13.15 -25.33 l5.60 -6.82 0.49 -24.23 c0.37 -21.68 0.73 -24.72 2.92 -28.50 1.34 -2.31 11.20 -12.18 21.92 -21.80 37.14 -33.61 54.68 -49.20 59.43 -52.73 8.40 -6.09 16.32 -4.26 24.60 5.97 2.56 3.17 12.30 14.74 21.55 25.70 9.26 10.84 18.14 21.80 19.73 24.23 3.65 5.36 3.90 11.20 0.49 15.47 -1.34 1.70 -13.52 13.03 -27.03 24.96 -13.52 12.06 -31.05 27.64 -38.85 34.71 -7.92 7.06 -16.07 13.76 -18.27 14.86 -5.85 3.04 -12.30 2.56 -36.78 -2.68 l-21.80 -4.75 -3.53 4.26 c-1.95 2.31 -5.48 7.67 -7.92 11.93 -2.31 4.14 -4.63 7.43 -4.99 7.43 -0.49 -0.12 -2.92 -0.61 -5.48 -1.10z m45.79 -37.99 c6.09 -3.17 7.43 -9.38 3.17 -14.86 -5.36 -6.82 -16.93 -2.56 -16.93 6.45 0 7.79 6.94 12.06 13.76 8.40z m61.74 -25.33 c4.99 -1.46 11.08 -6.58 13.03 -11.20 1.83 -4.14 1.22 -4.26 -3.65 -0.61 -3.29 2.19 -5.48 2.68 -13.15 2.68 -10.11 -0.12 -14 -1.70 -17.78 -7.55 -2.07 -3.17 -2.07 -3.17 2.68 -7.31 2.68 -2.31 6.33 -4.51 8.28 -4.87 4.26 -0.85 4.14 -2.56 -0.24 -6.70 l-3.41 -3.29 -7.67 4.99 c-8.04 5.11 -9.74 4.99 -9.74 -1.22 0 -8.16 6.58 -15.47 15.34 -16.81 6.21 -0.85 6.82 -2.80 2.19 -6.45 -8.65 -6.82 -22.65 0.61 -26.18 13.64 -1.70 6.21 -0.73 15.83 1.95 19.97 1.83 2.80 1.83 3.17 0.12 5.11 -3.78 4.26 -0.97 9.62 4.26 8.04 1.95 -0.73 3.65 0.24 7.67 4.14 7.67 7.55 16.81 10.11 26.30 7.43z"/>
 </g>
 <g fill="#054177">
  <path d="M610.96 746.98 c-27.52 -6.09 -51.39 -28.01 -61.86 -56.75 -3.90 -10.72 -4.63 -20.82 -1.70 -24.96 3.04 -4.26 7.18 -4.38 20.58 -0.49 17.29 5.11 29.35 7.31 45.67 8.65 24.72 1.83 53.70 -1.70 75.75 -9.13 11.81 -4.02 16.07 -4.02 19.36 0.37 2.31 2.80 2.56 4.38 2.07 10.59 -1.34 16.20 -11.20 35.32 -25.82 49.93 -11.20 11.20 -17.05 14.98 -30.57 19.61 -12.18 4.14 -30.93 5.11 -43.47 2.19z m40.92 -13.27 c10.23 -3.53 17.90 -8.40 17.90 -11.33 0 -3.29 -6.21 -8.52 -13.27 -11.20 -7.18 -2.80 -18.39 -3.17 -23.87 -0.73 -3.04 1.34 -4.51 1.22 -9.01 -0.24 -10.35 -3.53 -24.23 -0.49 -32.03 6.82 -4.38 4.14 -4.26 6.82 0.61 10.47 13.52 10.23 40.19 13.03 59.67 6.21z"/>
  <path d="M510 729.81 c1.46 -0.24 3.65 -0.24 4.87 0 1.10 0.37 -0.12 0.61 -2.80 0.49 -2.68 0 -3.65 -0.24 -2.07 -0.49z"/>
  <path d="M739.92 723.60 c-0.24 -0.49 1.58 -0.73 4.26 -0.49 2.56 0.24 4.75 0.73 4.75 0.97 0 0.85 -8.40 0.49 -9.01 -0.49z"/>
  <path d="M819.32 721.29 c2.80 -0.24 7.43 -0.24 10.35 0 2.80 0.24 0.49 0.49 -5.24 0.49 -5.72 0 -8.04 -0.24 -5.11 -0.49z"/>
  <path d="M748.69 707.89 c1.46 -0.24 3.65 -0.24 4.87 0 1.10 0.37 -0.12 0.61 -2.80 0.49 -2.68 0 -3.65 -0.24 -2.07 -0.49z"/>
  <path d="M503.18 623.99 c-2.07 -1.46 -2.68 -3.04 -2.68 -7.67 0 -12.30 10.84 -26.55 25.33 -33.37 7.18 -3.41 9.38 -3.90 18.02 -3.78 8.65 0 10.96 0.49 17.90 3.90 12.66 6.21 22.29 19.12 23.75 31.42 0.73 6.58 -1.95 10.23 -7.31 10.23 -5.48 0 -8.04 -1.95 -9.62 -7.31 -1.95 -6.45 -8.89 -14.37 -14.98 -17.17 -13.52 -6.09 -30.32 1.34 -34.83 15.59 -2.92 9.13 -9.38 12.54 -15.59 8.16z"/>
  <path d="M740.53 623.62 c-1.34 -1.34 -3.04 -4.63 -3.78 -7.31 -1.70 -6.45 -10.11 -14.98 -16.56 -16.93 -14.37 -4.26 -26.43 1.58 -33.25 16.07 -3.53 7.67 -5.36 9.26 -9.99 9.26 -3.41 0 -8.40 -5.36 -8.40 -8.89 0 -5.11 8.16 -19.73 14.13 -25.21 8.65 -7.92 17.41 -11.45 29.10 -11.45 8.65 -0.12 10.72 0.37 17.90 3.90 13.03 6.45 23.62 20.09 24.96 32.51 0.49 4.14 0.12 5.72 -1.95 7.79 -3.17 3.17 -9.13 3.29 -12.18 0.24z"/>
  <path d="M838.80 605.60 c1.46 -0.24 3.90 -0.24 5.48 0 1.46 0.24 0.24 0.49 -2.80 0.49 -3.04 0 -4.26 -0.24 -2.68 -0.49z"/>
  <path d="M543.49 508.18 c1.10 -0.24 3.04 -0.24 4.26 0 1.10 0.37 0.12 0.61 -2.19 0.61 -2.31 0 -3.29 -0.24 -2.07 -0.61z"/>
  <path d="M820.78 238.32 c0 -0.24 1.83 -1.95 4.02 -4.02 l3.90 -3.53 -3.53 4.02 c-3.41 3.65 -4.38 4.51 -4.38 3.53z"/>
 </g>
</svg>